<svg id="bold" enable-background="new 0 0 32 32" height="512" viewBox="0 0 32 32" width="512" xmlns="http://www.w3.org/2000/svg"><path d="m26 32h-20c-3.314 0-6-2.686-6-6v-20c0-3.314 2.686-6 6-6h20c3.314 0 6 2.686 6 6v20c0 3.314-2.686 6-6 6z" fill="#ffe6e2"/><g fill="#fd907e"><path d="m16 18.667c-1.103 0-2-.897-2-2s.897-2 2-2 2 .897 2 2-.897 2-2 2z"/><path d="m20.833 17.333h-3.2c-.276 0-.5-.224-.5-.5s.224-.5.5-.5h3.2c.09 0 .167-.076.167-.167v-.333c0-.276.224-.5.5-.5s.5.224.5.5v.333c0 .644-.523 1.167-1.167 1.167z"/><path d="m14.367 17.333h-3.2c-.643 0-1.167-.523-1.167-1.167v-.333c0-.276.224-.5.5-.5s.5.224.5.5v.333c0 .09.076.167.167.167h3.2c.276 0 .5.224.5.5s-.224.5-.5.5z"/><path d="m18.167 16h-1.167c-.276 0-.5-.224-.5-.5s.224-.5.5-.5h1.167c.276 0 .5.224.5.5s-.224.5-.5.5z"/><path d="m15 16h-1.167c-.276 0-.5-.224-.5-.5s.224-.5.5-.5h1.167c.276 0 .5.224.5.5s-.224.5-.5.5z"/><path d="m16 15.5c-.276 0-.5-.224-.5-.5v-1.167c0-.276.224-.5.5-.5s.5.224.5.5v1.167c0 .276-.224.5-.5.5z"/><path d="m20 19.333c-.735 0-1.333-.598-1.333-1.333s.598-1.333 1.333-1.333 1.333.598 1.333 1.333-.598 1.333-1.333 1.333z"/><path d="m12 19.333c-.735 0-1.333-.598-1.333-1.333s.598-1.333 1.333-1.333 1.333.598 1.333 1.333-.598 1.333-1.333 1.333z"/><path d="m20.167 21.333h-8.333c-.276 0-.5-.224-.5-.5s.224-.5.5-.5h8.333c.276 0 .5.224.5.5s-.224.5-.5.5z"/></g><path d="m22 8.667h-12c-1.103 0-2 .897-2 2v10.667c0 1.103.897 2 2 2h12c1.103 0 2-.897 2-2v-10.667c0-1.103-.897-2-2-2zm0 13.333h-12c-.368 0-.667-.299-.667-.667v-9.333h13.333v9.333c.001.368-.298.667-.666.667z" fill="#fc573b"/></svg>