<svg id="bold" enable-background="new 0 0 32 32" height="512" viewBox="0 0 32 32" width="512" xmlns="http://www.w3.org/2000/svg"><path d="m26 32h-20c-3.314 0-6-2.686-6-6v-20c0-3.314 2.686-6 6-6h20c3.314 0 6 2.686 6 6v20c0 3.314-2.686 6-6 6z" fill="#ffe6e2"/><g fill="#fd907e"><path d="m16.167 19.333h-.333c-.643 0-1.167-.523-1.167-1.167v-2.5c0-.461.306-1 1.167-1h.333c.861 0 1.167.539 1.167 1v2.5c-.001.644-.524 1.167-1.167 1.167zm-.334-3.666c-.122 0-.184.022-.198.03l.031 2.47c0 .092.075.167.167.167h.333c.092 0 .167-.075.167-.167v-2.491c-.013.005-.072-.009-.167-.009z"/><path d="m13.333 15.167c0-.276-.224-.5-.5-.5s-.5.224-.5.5v1.167h-.5c-.092 0-.167-.075-.167-.167v-1c0-.276-.224-.5-.5-.5s-.5.224-.5.5v1c0 .643.523 1.167 1.167 1.167h.5v1.5c0 .276.224.5.5.5s.5-.224.5-.5z"/><path d="m21.333 15.167c0-.276-.224-.5-.5-.5s-.5.224-.5.5v1.167h-.5c-.092 0-.167-.075-.167-.167v-1c0-.276-.224-.5-.5-.5s-.5.224-.5.5v1c0 .643.523 1.167 1.167 1.167h.5v1.5c0 .276.224.5.5.5s.5-.224.5-.5z"/></g><path d="m22 8.667h-12c-1.103 0-2 .897-2 2v10.667c0 1.103.897 2 2 2h12c1.103 0 2-.897 2-2v-10.667c0-1.103-.897-2-2-2zm0 13.333h-12c-.368 0-.667-.299-.667-.667v-9.333h13.333v9.333c.001.368-.298.667-.666.667z" fill="#fc573b"/></svg>