<svg id="bold" enable-background="new 0 0 32 32" height="512" viewBox="0 0 32 32" width="512" xmlns="http://www.w3.org/2000/svg"><path d="m26 32h-20c-3.314 0-6-2.686-6-6v-20c0-3.314 2.686-6 6-6h20c3.314 0 6 2.686 6 6v20c0 3.314-2.686 6-6 6z" fill="#ffe6e2"/><path d="m16 19c-1.103 0-2-.897-2-2s.897-2 2-2 2 .897 2 2-.897 2-2 2zm0-2.667c-.368 0-.667.299-.667.667s.299.667.667.667.667-.299.667-.667-.299-.667-.667-.667z" fill="#fd907e"/><path d="m22 8.667h-12c-1.103 0-2 .897-2 2v10.667c0 1.103.897 2 2 2h12c1.103 0 2-.897 2-2v-10.667c0-1.103-.897-2-2-2zm0 13.333h-12c-.368 0-.667-.299-.667-.667v-9.333h13.333v9.333c.001.368-.298.667-.666.667z" fill="#fc573b"/><path d="m16 21.333c-2.389 0-4.333-1.944-4.333-4.333s1.944-4.333 4.333-4.333 4.333 1.944 4.333 4.333v.5c0 1.011-.822 1.833-1.833 1.833s-1.833-.822-1.833-1.833v-2.167c0-.368.299-.667.667-.667s.666.299.666.667v2.167c0 .275.224.5.5.5s.5-.225.5-.5v-.5c0-1.654-1.346-3-3-3s-3 1.346-3 3 1.346 3 3 3c.368 0 .667.298.667.667 0 .368-.299.666-.667.666z" fill="#fd907e"/></svg>