<svg id="bold" enable-background="new 0 0 32 32" height="512" viewBox="0 0 32 32" width="512" xmlns="http://www.w3.org/2000/svg"><path d="m26 32h-20c-3.314 0-6-2.686-6-6v-20c0-3.314 2.686-6 6-6h20c3.314 0 6 2.686 6 6v20c0 3.314-2.686 6-6 6z" fill="#e3f8fa"/><path d="m19.5 16h-.47c-.01-.011-.014-.024-.024-.034l-1.906-1.761c.04-.118.066-.241.066-.372 0-.643-.523-1.167-1.167-1.167s-1.167.523-1.167 1.167c0 .131.027.254.066.372l-1.906 1.761c-.011.01-.015.023-.024.034h-.468c-.643 0-1.167.523-1.167 1.167v3.333c0 .643.523 1.167 1.167 1.167h7c.643 0 1.167-.523 1.167-1.167v-3.333c0-.644-.524-1.167-1.167-1.167zm-3.904-1.077c.126.048.261.077.404.077s.278-.029.404-.076l1.165 1.076h-3.139zm4.071 5.577c0 .092-.075.167-.167.167h-7c-.092 0-.167-.075-.167-.167v-3.333c0-.092.075-.167.167-.167h7c.092 0 .167.075.167.167z" fill="#8ce1eb"/><path d="m22 8.667h-12c-1.103 0-2 .897-2 2v10.667c0 1.103.897 2 2 2h12c1.103 0 2-.897 2-2v-10.667c0-1.103-.897-2-2-2zm0 13.333h-12c-.368 0-.667-.299-.667-.667v-9.333h13.333v9.333c.001.368-.298.667-.666.667z" fill="#26c6da"/></svg>