<svg id="bold" enable-background="new 0 0 32 32" height="512" viewBox="0 0 32 32" width="512" xmlns="http://www.w3.org/2000/svg"><path d="m26 32h-20c-3.314 0-6-2.686-6-6v-20c0-3.314 2.686-6 6-6h20c3.314 0 6 2.686 6 6v20c0 3.314-2.686 6-6 6z" fill="#fff9dd"/><g fill="#ffe777"><path d="m18.833 20.333h-1.667c-.276 0-.5-.224-.5-.5v-6c0-.276.224-.5.5-.5h1.667c.276 0 .5.224.5.5v6c0 .276-.224.5-.5.5z"/><path d="m14.833 20.333h-1.667c-.276 0-.5-.224-.5-.5v-3.333c0-.276.224-.5.5-.5h1.667c.276 0 .5.224.5.5v3.333c0 .276-.224.5-.5.5z"/><path d="m19.333 20.667h-6.667c-.368 0-.666-.298-.666-.667 0-.368.298-.667.667-.667h6.667c.368 0 .666.299.666.667 0 .369-.298.667-.667.667z"/></g><path d="m24 10.667c0-1.103-.897-2-2-2h-12c-1.103 0-2 .897-2 2v10.667c0 1.103.897 2 2 2h12c1.103 0 2-.897 2-2zm-1.333 10.666c0 .368-.299.667-.667.667h-12c-.368 0-.667-.299-.667-.667v-9.333h13.333v9.333z" fill="#ffd200"/></svg>