<svg id="bold" enable-background="new 0 0 32 32" height="512" viewBox="0 0 32 32" width="512" xmlns="http://www.w3.org/2000/svg"><path d="m26 32h-20c-3.314 0-6-2.686-6-6v-20c0-3.314 2.686-6 6-6h20c3.314 0 6 2.686 6 6v20c0 3.314-2.686 6-6 6z" fill="#fff9dd"/><path d="m20.244 16.881c-.094-.134-.247-.214-.41-.214h-7.667c-.163 0-.316.08-.41.214s-.115.305-.059.458l1.176 3.196c.159.477.604.798 1.107.798h4.039c.503 0 .948-.321 1.102-.783l1.182-3.211c.055-.153.033-.324-.06-.458z" fill="#ffe777"/><path d="m18.5 17.667c-.202 0-.393-.124-.468-.324l-.878-2.343h-2.307l-.878 2.342c-.097.258-.386.389-.644.292s-.389-.385-.292-.644l1-2.667c.072-.193.259-.323.467-.323h3c.208 0 .395.13.468.324l1 2.667c.097.258-.034.547-.292.644-.058.021-.117.032-.176.032z" fill="#ffe777"/><path d="m22 8.667h-12c-1.103 0-2 .897-2 2v10.667c0 1.103.897 2 2 2h12c1.103 0 2-.897 2-2v-10.667c0-1.103-.897-2-2-2zm0 13.333h-12c-.368 0-.667-.299-.667-.667v-9.333h13.333v9.333c.001.368-.298.667-.666.667z" fill="#ffd200"/></svg>