<svg id="bold" enable-background="new 0 0 32 32" height="512" viewBox="0 0 32 32" width="512" xmlns="http://www.w3.org/2000/svg"><path d="m26 32h-20c-3.314 0-6-2.686-6-6v-20c0-3.314 2.686-6 6-6h20c3.314 0 6 2.686 6 6v20c0 3.314-2.686 6-6 6z" fill="#e3f8fa"/><g fill="#8ce1eb"><path d="m17.886 16.927c.071-.185.114-.384.114-.594 0-.919-.747-1.667-1.667-1.667h-2.333c-.368 0-.667.298-.667.667v4c0 .369.298.667.667.667h3c.919 0 1.667-.747 1.667-1.667 0-.593-.314-1.111-.781-1.406zm-3.219-.927h1.667c.184 0 .333.15.333.333 0 .184-.15.333-.333.333h-1.667zm2.333 2.667h-2.333v-.667h1.667.666c.184 0 .333.15.333.333 0 .184-.149.334-.333.334z"/><path d="m14.667 15.333v-1.333c0-.368.298-.667.667-.667s.666.298.666.667v1.333c0 .369-1.333.369-1.333 0z"/><path d="m15.333 21.333c-.368 0-.667-.298-.667-.667v-1.333c0-.368 1.333-.368 1.333 0v1.333c.001.369-.297.667-.666.667z"/></g><path d="m22 8.667h-12c-1.103 0-2 .897-2 2v10.667c0 1.103.897 2 2 2h12c1.103 0 2-.897 2-2v-10.667c0-1.103-.897-2-2-2zm0 13.333h-12c-.368 0-.667-.299-.667-.667v-9.333h13.333v9.333c.001.368-.298.667-.666.667z" fill="#26c6da"/></svg>