<svg id="bold" enable-background="new 0 0 32 32" height="512" viewBox="0 0 32 32" width="512" xmlns="http://www.w3.org/2000/svg"><path d="m26 32h-20c-3.314 0-6-2.686-6-6v-20c0-3.314 2.686-6 6-6h20c3.314 0 6 2.686 6 6v20c0 3.314-2.686 6-6 6z" fill="#ffe6e2"/><path d="m22 8.667h-12c-1.103 0-2 .897-2 2v10.667c0 1.103.897 2 2 2h12c1.103 0 2-.897 2-2v-10.667c0-1.103-.897-2-2-2zm-4 3.5v4.907l-1.511-.917c-.301-.168-.675-.169-.998.012l-1.491.905v-4.908h4zm4.667 9.166c0 .368-.299.667-.667.667h-12c-.368 0-.667-.299-.667-.667v-9.333h3.333v5.666c0 .359.185.682.494.863.309.182.681.186 1.015-.002l1.825-1.108 1.825 1.107c.007.005.014.008.021.012.154.086.321.129.489.129.174 0 .348-.047.506-.139.31-.181.494-.504.494-.863v-5.665h3.333v9.333z" fill="#fc573b"/></svg>