<svg id="bold" enable-background="new 0 0 32 32" height="512" viewBox="0 0 32 32" width="512" xmlns="http://www.w3.org/2000/svg"><path d="m26 32h-20c-3.314 0-6-2.686-6-6v-20c0-3.314 2.686-6 6-6h20c3.314 0 6 2.686 6 6v20c0 3.314-2.686 6-6 6z" fill="#fff9dd"/><g fill="#ffe777"><path d="m20.167 18.667h-8.333c-.643 0-1.167-.523-1.167-1.167v-2.333c0-.643.523-1.167 1.167-1.167h8.333c.643 0 1.167.523 1.167 1.167v2.333c-.001.643-.524 1.167-1.167 1.167z"/><path d="m12.667 20.667v-6.667c0-.368.298-.667.667-.667.368 0 .666.299.666.667v6.667c0 .368-1.333.368-1.333 0z"/><path d="m18 20.667v-6.667c0-.368.298-.667.667-.667.368 0 .667.299.667.667v6.667c-.001.368-1.334.368-1.334 0z"/><path d="m14 21.333h-1.333c-.368 0-.667-.299-.667-.667s.298-.666.667-.666h1.333c.368 0 .667.299.667.667s-.299.666-.667.666z"/><path d="m19.333 21.333h-1.333c-.368 0-.667-.299-.667-.667s.299-.666.667-.666h1.333c.369 0 .667.299.667.667s-.298.666-.667.666z"/></g><path d="m22 8.667h-12c-1.103 0-2 .897-2 2v10.667c0 1.103.897 2 2 2h12c1.103 0 2-.897 2-2v-10.667c0-1.103-.897-2-2-2zm0 13.333h-12c-.368 0-.667-.299-.667-.667v-9.333h13.333v9.333c.001.368-.298.667-.666.667z" fill="#ffd200"/></svg>