<svg id="bold" enable-background="new 0 0 32 32" height="512" viewBox="0 0 32 32" width="512" xmlns="http://www.w3.org/2000/svg"><path d="m26 32h-20c-3.314 0-6-2.686-6-6v-20c0-3.314 2.686-6 6-6h20c3.314 0 6 2.686 6 6v20c0 3.314-2.686 6-6 6z" fill="#e3f8fa"/><path d="m22 8.667h-12c-1.103 0-2 .897-2 2v10.667c0 1.103.897 2 2 2h12c1.103 0 2-.897 2-2v-10.667c0-1.103-.897-2-2-2zm0 13.333h-12c-.368 0-.667-.299-.667-.667v-9.333h13.333v9.333c.001.368-.298.667-.666.667z" fill="#26c6da"/><path d="m20.757 14.404c-.152-.09-.339-.094-.493-.011l-1.62.872c-.115-.715-.73-1.265-1.477-1.265h-5c-.827 0-1.5.673-1.5 1.5v3.667c0 .827.673 1.5 1.5 1.5h5c.825 0 1.497-.67 1.499-1.495l1.549 1.073c.085.059.185.089.285.089.079 0 .159-.019.232-.057.165-.087.268-.258.268-.444v-5c0-.176-.092-.339-.243-.429zm-3.09 4.763c0 .276-.224.5-.5.5h-5c-.276 0-.5-.224-.5-.5v-3.667c0-.276.224-.5.5-.5h5c.276 0 .5.224.5.5z" fill="#8ce1eb"/></svg>