<svg id="bold" enable-background="new 0 0 32 32" height="512" viewBox="0 0 32 32" width="512" xmlns="http://www.w3.org/2000/svg"><path d="m26 32h-20c-3.314 0-6-2.686-6-6v-20c0-3.314 2.686-6 6-6h20c3.314 0 6 2.686 6 6v20c0 3.314-2.686 6-6 6z" fill="#f5e6fe"/><path d="m22 8.667h-12c-1.103 0-2 .897-2 2v10.667c0 1.103.897 2 2 2h12c1.103 0 2-.897 2-2v-10.667c0-1.103-.897-2-2-2zm0 13.333h-12c-.368 0-.667-.299-.667-.667v-9.333h13.333v9.333c.001.368-.298.667-.666.667z" fill="#be63f9"/><g fill="#d9a4fc"><circle cx="16.005" cy="17.667" r="2"/><path d="m19.505 14.667h-1.167c-.052 0-.102-.025-.133-.066l-.6-.801c-.219-.292-.568-.466-.933-.466h-1.333c-.365 0-.714.174-.933.467l-.6.799c-.032.042-.081.067-.134.067h-1.167c-.643 0-1.167.523-1.167 1.167v4.333c0 .643.523 1.167 1.167 1.167h7c.643 0 1.167-.523 1.167-1.167v-4.333c-.001-.644-.524-1.167-1.167-1.167zm.166 5.5c0 .092-.075.167-.167.167h-7c-.092 0-.167-.075-.167-.167v-4.333c0-.092.075-.167.167-.167h1.167c.365 0 .714-.174.934-.467l.6-.799c.032-.042.081-.067.133-.067h1.333c.052 0 .102.025.133.066l.6.801c.219.292.568.466.933.466h1.167c.092 0 .167.075.167.167z"/></g></svg>