<svg id="bold" enable-background="new 0 0 32 32" height="512" viewBox="0 0 32 32" width="512" xmlns="http://www.w3.org/2000/svg"><path d="m26 32h-20c-3.314 0-6-2.686-6-6v-20c0-3.314 2.686-6 6-6h20c3.314 0 6 2.686 6 6v20c0 3.314-2.686 6-6 6z" fill="#f5e6fe"/><path d="m22 8.667h-12c-1.103 0-2 .897-2 2v10.667c0 1.103.897 2 2 2h12c1.103 0 2-.897 2-2v-10.667c0-1.103-.897-2-2-2zm0 13.333h-12c-.368 0-.667-.299-.667-.667v-9.333h13.333v9.333c.001.368-.298.667-.666.667z" fill="#be63f9"/><path d="m17 20.667c-.252 0-.483-.142-.596-.368l-2.153-4.306-.696 1.044c-.124.186-.332.297-.555.297h-1.667c-.368 0-.667-.299-.667-.667s.299-.667.667-.667h1.31l1.135-1.703c.132-.198.349-.313.596-.296.237.015.449.155.555.367l2.003 4.006.782-1.955c.102-.253.347-.419.619-.419h2.333c.368 0 .667.299.667.667s-.298.667-.667.667h-1.882l-1.165 2.914c-.098.243-.329.408-.591.418-.01 0-.019.001-.028.001z" fill="#d9a4fc"/></svg>