<svg id="bold" enable-background="new 0 0 32 32" height="512" viewBox="0 0 32 32" width="512" xmlns="http://www.w3.org/2000/svg"><path d="m26 32h-20c-3.314 0-6-2.686-6-6v-20c0-3.314 2.686-6 6-6h20c3.314 0 6 2.686 6 6v20c0 3.314-2.686 6-6 6z" fill="#e3f8fa"/><path d="m18.833 14h-5.667c-.643 0-1.166.523-1.166 1.167v3c0 .643.523 1.167 1.167 1.167h.833v1.5c0 .199.118.378.299.458.064.028.133.042.201.042.123 0 .245-.046.339-.132l2.023-1.868h1.971c.643 0 1.167-.523 1.167-1.167v-3c0-.644-.523-1.167-1.167-1.167zm-4.833 3.333c-.368 0-.667-.298-.667-.667s.299-.666.667-.666.667.298.667.667-.299.666-.667.666zm2 0c-.368 0-.667-.298-.667-.667s.299-.666.667-.666.667.298.667.667-.299.666-.667.666zm2 0c-.368 0-.667-.298-.667-.667s.299-.666.667-.666.667.298.667.667-.299.666-.667.666z" fill="#8ce1eb"/><path d="m22 8.667h-12c-1.103 0-2 .897-2 2v10.667c0 1.103.897 2 2 2h12c1.103 0 2-.897 2-2v-10.667c0-1.103-.897-2-2-2zm0 13.333h-12c-.368 0-.667-.299-.667-.667v-9.333h13.333v9.333c.001.368-.298.667-.666.667z" fill="#26c6da"/></svg>