<svg id="bold" enable-background="new 0 0 32 32" height="512" viewBox="0 0 32 32" width="512" xmlns="http://www.w3.org/2000/svg"><path d="m26 32h-20c-3.314 0-6-2.686-6-6v-20c0-3.314 2.686-6 6-6h20c3.314 0 6 2.686 6 6v20c0 3.314-2.686 6-6 6z" fill="#fff9dd"/><path d="m20.833 21.333h-7c-.643 0-1.167-.523-1.167-1.167v-1.666c0-.643.523-1.167 1.167-1.167h5c.643 0 1.167.523 1.167 1.167v1.083l1.133.85c.172.129.242.354.174.558-.067.204-.258.342-.474.342z" fill="#ffe777"/><path d="m22 8.667h-12c-1.103 0-2 .897-2 2v10.667c0 1.103.897 2 2 2h12c1.103 0 2-.897 2-2v-10.667c0-1.103-.897-2-2-2zm0 13.333h-12c-.368 0-.667-.299-.667-.667v-9.333h13.333v9.333c.001.368-.298.667-.666.667z" fill="#ffd200"/><path d="m18.167 16.667h-7.667c-.215 0-.406-.138-.475-.342-.068-.204.003-.429.174-.558l1.133-.85v-1.083c0-.643.523-1.167 1.167-1.167h5.667c.643 0 1.167.523 1.167 1.167v1.666c0 .643-.523 1.167-1.166 1.167zm-6.167-1h6.167c.092 0 .167-.075.167-.167v-1.667c0-.092-.075-.167-.167-.167h-5.667c-.092 0-.167.075-.167.167v1.333c0 .158-.074.305-.2.4z" fill="#ffe777"/></svg>