<svg id="bold" enable-background="new 0 0 32 32" height="512" viewBox="0 0 32 32" width="512" xmlns="http://www.w3.org/2000/svg"><path d="m26 32h-20c-3.314 0-6-2.686-6-6v-20c0-3.314 2.686-6 6-6h20c3.314 0 6 2.686 6 6v20c0 3.314-2.686 6-6 6z" fill="#ffe6e2"/><path d="m22 8.667h-12c-1.103 0-2 .897-2 2v10.667c0 1.103.897 2 2 2h12c1.103 0 2-.897 2-2v-10.667c0-1.103-.897-2-2-2zm0 13.333h-12c-.368 0-.667-.299-.667-.667v-9.333h13.333v9.333c.001.368-.298.667-.666.667z" fill="#fc573b"/><path d="m20.658 15.425c-.021-.09-.077-.167-.157-.213l-2-1.167c-.051-.029-.109-.045-.168-.045h-1.333c-.184 0-.333.149-.333.333 0 .368-.299.667-.667.667s-.667-.299-.667-.667c0-.184-.149-.333-.333-.333h-1.333c-.059 0-.117.016-.168.046l-2 1.167c-.079.046-.136.123-.157.213-.021.089-.004.184.048.26l1 1.5c.083.124.239.176.383.132l.561-.188v3.204c0 .184.149.333.333.333h4.667c.184 0 .333-.149.333-.333v-3.204l.561.188c.143.046.299-.007.383-.132l1-1.5c.051-.077.068-.172.047-.261z" fill="#fd907e"/></svg>