<svg id="bold" enable-background="new 0 0 32 32" height="512" viewBox="0 0 32 32" width="512" xmlns="http://www.w3.org/2000/svg"><path d="m26 32h-20c-3.314 0-6-2.686-6-6v-20c0-3.314 2.686-6 6-6h20c3.314 0 6 2.686 6 6v20c0 3.314-2.686 6-6 6z" fill="#ffe6e2"/><path d="m22 8.667h-12c-1.103 0-2 .897-2 2v10.667c0 1.103.897 2 2 2h12c1.103 0 2-.897 2-2v-10.667c0-1.103-.897-2-2-2zm0 13.333h-12c-.368 0-.667-.299-.667-.667v-9.333h13.333v9.333c.001.368-.298.667-.666.667z" fill="#fc573b"/><g fill="#fd907e"><path d="m16 21.166c-.368 0-.667-.299-.667-.667v-3.167c0-.368.299-.667.667-.667s.667.299.667.667v3.167c0 .368-.299.667-.667.667z"/><path d="m18.596 14.693c-.572-.82-1.52-1.36-2.596-1.36-1.346 0-2.489.844-2.947 2.028-.971.137-1.72.963-1.72 1.972 0 1.105.895 2 2 2h.001c0-.342.13-.684.39-.944s.601-.39.943-.39v-.667c0-.735.598-1.333 1.333-1.333s1.333.598 1.333 1.333v.669c.342 0 .684.129.945.39.251.251.378.579.387.908 1.13-.162 2.002-1.125 2.002-2.3 0-1.198-.908-2.174-2.071-2.306z"/><path d="m17.333 18.667h-2.667c-.27 0-.513.162-.616.411s-.046.536.145.727l1.333 1.333c.26.26.682.26.943 0l1.333-1.333c.191-.191.248-.477.145-.727-.103-.249-.346-.411-.616-.411z"/></g></svg>