<svg id="bold" enable-background="new 0 0 32 32" height="512" viewBox="0 0 32 32" width="512" xmlns="http://www.w3.org/2000/svg"><path d="m26 32h-20c-3.314 0-6-2.686-6-6v-20c0-3.314 2.686-6 6-6h20c3.314 0 6 2.686 6 6v20c0 3.314-2.686 6-6 6z" fill="#fff9dd"/><path d="m22 8.667h-12c-1.103 0-2 .897-2 2v10.667c0 1.103.897 2 2 2h12c1.103 0 2-.897 2-2v-10.667c0-1.103-.897-2-2-2zm0 13.333h-12c-.368 0-.667-.299-.667-.667v-9.333h13.333v9.333c.001.368-.298.667-.666.667z" fill="#ffd200"/><path d="m16 21.332c-.368 0-.667-.299-.667-.667v-3.167c0-.368.299-.667.667-.667s.667.299.667.667v3.167c0 .369-.299.667-.667.667z" fill="#ffd200"/><path d="m18.596 14.693c-.572-.82-1.52-1.36-2.596-1.36-1.346 0-2.489.844-2.947 2.028-.971.137-1.72.963-1.72 1.972 0 1.105.895 2 2 2h.184c-.295-.51-.229-1.173.206-1.608l1.335-1.335c.504-.504 1.382-.504 1.885 0l1.333 1.333c.432.432.499 1.086.214 1.594 1.213-.083 2.175-1.083 2.175-2.317.002-1.199-.906-2.175-2.069-2.307z" fill="#ffe777"/><path d="m17.333 19.333h-2.667c-.27 0-.513-.162-.616-.411s-.046-.536.145-.727l1.333-1.333c.26-.26.682-.26.943 0l1.333 1.333c.191.191.248.477.145.727-.103.249-.346.411-.616.411z" fill="#ffd200"/></svg>