<svg id="bold" enable-background="new 0 0 32 32" height="512" viewBox="0 0 32 32" width="512" xmlns="http://www.w3.org/2000/svg"><path d="m26 32h-20c-3.314 0-6-2.686-6-6v-20c0-3.314 2.686-6 6-6h20c3.314 0 6 2.686 6 6v20c0 3.314-2.686 6-6 6z" fill="#e3f8fa"/><g fill="#26c6da"><path d="m22 8.667h-12c-1.103 0-2 .897-2 2v10.667c0 1.103.897 2 2 2h12c1.103 0 2-.897 2-2v-10.667c0-1.103-.897-2-2-2zm0 13.333h-12c-.368 0-.667-.299-.667-.667v-9.333h13.333v9.333c.001.368-.298.667-.666.667z"/><path d="m13.333 21.332c-.368 0-.667-.299-.667-.667v-3.167c0-.368.299-.667.667-.667s.667.3.667.668v3.167c0 .368-.299.666-.667.666z"/><path d="m18.667 16.666c-.368 0-.667.299-.667.667v3.167c0 .368.299.667.667.667s.667-.299.667-.667v-3.167c-.001-.369-.299-.667-.667-.667z"/></g><path d="m12.393 16.39c.504-.504 1.382-.504 1.885 0l1.333 1.333c.436.436.501 1.1.205 1.61h.184c-.001-.342.129-.685.39-.946.26-.26.601-.39.943-.39v-.665c0-.735.598-1.333 1.333-1.333s1.334.598 1.334 1.333v.668c.135 0 .268.026.398.066.166-.321.269-.68.269-1.066 0-1.199-.907-2.175-2.071-2.307-.572-.82-1.52-1.36-2.596-1.36-1.346 0-2.489.844-2.947 2.028-.971.137-1.72.963-1.72 1.972 0 .036.009.069.011.105z" fill="#8ce1eb"/><path d="m14.667 19.333h-2.667c-.27 0-.513-.162-.616-.411s-.046-.536.145-.727l1.333-1.333c.26-.26.682-.26.943 0l1.333 1.333c.191.191.248.477.145.727-.104.249-.347.411-.616.411z" fill="#26c6da"/><path d="m20 18.667h-2.667c-.27 0-.513.162-.616.411s-.046.536.145.727l1.333 1.333c.26.26.682.26.943 0l1.333-1.333c.191-.191.248-.477.145-.727-.103-.249-.346-.411-.616-.411z" fill="#26c6da"/></svg>