<svg id="bold" enable-background="new 0 0 32 32" height="512" viewBox="0 0 32 32" width="512" xmlns="http://www.w3.org/2000/svg"><path d="m26 32h-20c-3.314 0-6-2.686-6-6v-20c0-3.314 2.686-6 6-6h20c3.314 0 6 2.686 6 6v20c0 3.314-2.686 6-6 6z" fill="#f5e6fe"/><path d="m22 8.667h-12c-1.103 0-2 .897-2 2v10.667c0 1.103.897 2 2 2h12c1.103 0 2-.897 2-2v-10.667c0-1.103-.897-2-2-2zm0 13.333h-12c-.368 0-.667-.299-.667-.667v-9.333h13.333v9.333c.001.368-.298.667-.666.667z" fill="#be63f9"/><path d="m16 12.667c-2.389 0-4.333 1.944-4.333 4.333s1.944 4.333 4.333 4.333 4.333-1.944 4.333-4.333-1.944-4.333-4.333-4.333zm0 5.571c-.683 0-1.238-.555-1.238-1.238s.556-1.238 1.238-1.238 1.238.555 1.238 1.238-.555 1.238-1.238 1.238zm2.786-.928c-.171 0-.31-.138-.31-.31 0-1.365-1.111-2.476-2.476-2.476-.171 0-.31-.138-.31-.31 0-.171.138-.31.31-.31 1.707 0 3.095 1.389 3.095 3.095 0 .172-.138.311-.309.311z" fill="#d9a4fc"/></svg>