<svg id="bold" enable-background="new 0 0 32 32" height="512" viewBox="0 0 32 32" width="512" xmlns="http://www.w3.org/2000/svg"><path d="m26 32h-20c-3.314 0-6-2.686-6-6v-20c0-3.314 2.686-6 6-6h20c3.314 0 6 2.686 6 6v20c0 3.314-2.686 6-6 6z" fill="#f5e6fe"/><path d="m22 8.667h-12c-1.103 0-2 .897-2 2v10.667c0 1.103.897 2 2 2h12c1.103 0 2-.897 2-2v-10.667c0-1.103-.897-2-2-2zm0 13.333h-12c-.368 0-.667-.299-.667-.667v-9.333h13.333v9.333c.001.368-.298.667-.666.667z" fill="#be63f9"/><g fill="#d9a4fc"><path d="m18.667 13.347h.667c.368 0 .667.298.667.667v4c0 .368-.298.667-.667.667h-.667c-.368 0-.667-.298-.667-.667v-4c0-.369.298-.667.667-.667z"/><path d="m12 17.073c0 .887.72 1.607 1.607 1.607h1.327c-.073.233-.14.547-.14.913 0 1.08.58 1.573 1.113 1.573.8 0 .8-.853.8-1.267 0-.507.44-.96.793-1.24-.107-.193-.167-.413-.167-.647v-4c0-.06.007-.12.013-.18-.58-.24-1.507-.487-2.84-.487h-.506c-.8 0-1.5.58-1.62 1.347l.027.007c-.327.681-.407 2.354-.407 2.374z"/></g></svg>