<svg id="bold" enable-background="new 0 0 32 32" height="512" viewBox="0 0 32 32" width="512" xmlns="http://www.w3.org/2000/svg"><path d="m26 32h-20c-3.314 0-6-2.686-6-6v-20c0-3.314 2.686-6 6-6h20c3.314 0 6 2.686 6 6v20c0 3.314-2.686 6-6 6z" fill="#f5e6fe"/><g fill="#d9a4fc"><path d="m20.667 19.333c-.225 0-.422-.15-.482-.366l-.833-3c-.074-.266.082-.542.348-.616.264-.074.542.082.616.348l.352 1.266.352-1.266c.074-.266.35-.421.616-.348.266.074.422.35.348.616l-.833 3c-.063.217-.26.366-.484.366z"/><circle cx="10.5" cy="18.833" r=".5"/><path d="m14.5 19.333h-1.333c-.643 0-1.167-.523-1.167-1.167v-1.666c0-.643.523-1.167 1.167-1.167h1.333c.276 0 .5.224.5.5s-.224.5-.5.5h-1.333c-.092 0-.167.075-.167.167v.333h1.5c.276 0 .5.224.5.5v1.5c0 .276-.224.5-.5.5zm-1.5-1.5v.333c0 .092.075.167.167.167h.833v-.5z"/><path d="m17.5 19.333h-.333c-.643 0-1.167-.523-1.167-1.167v-1.666c0-.643.523-1.167 1.167-1.167h.333c.643 0 1.167.523 1.167 1.167v1.667c0 .643-.524 1.166-1.167 1.166zm-.333-3c-.092 0-.167.075-.167.167v1.667c0 .092.075.167.167.167h.333c.092 0 .167-.075.167-.167v-1.667c0-.092-.075-.167-.167-.167z"/></g><path d="m22 8.667h-12c-1.103 0-2 .897-2 2v10.667c0 1.103.897 2 2 2h12c1.103 0 2-.897 2-2v-10.667c0-1.103-.897-2-2-2zm0 13.333h-12c-.368 0-.667-.299-.667-.667v-9.333h13.333v9.333c.001.368-.298.667-.666.667z" fill="#be63f9"/></svg>