<svg id="bold" enable-background="new 0 0 32 32" height="512" viewBox="0 0 32 32" width="512" xmlns="http://www.w3.org/2000/svg"><path d="m26 32h-20c-3.314 0-6-2.686-6-6v-20c0-3.314 2.686-6 6-6h20c3.314 0 6 2.686 6 6v20c0 3.314-2.686 6-6 6z" fill="#fff9dd"/><g fill="#ffe777"><path d="m17.5 17.833h-1.667c-.276 0-.276-1 0-1h1.667c.276 0 .5.224.5.5s-.224.5-.5.5z"/><path d="m17.5 19.333h-1c-.643 0-1.167-.523-1.167-1.167v-1.666c0-.643.523-1.167 1.167-1.167h1c.276 0 .5.224.5.5s-.224.5-.5.5h-1c-.092 0-.167.075-.167.167v1.667c0 .092.075.167.167.167h1c.276 0 .5.224.5.5s-.224.499-.5.499z"/><path d="m14.167 19.333c-.178 0-.347-.096-.437-.257l-.73-1.313v1.07c0 .276-.224.5-.5.5s-.5-.224-.5-.5v-3c0-.228.154-.427.375-.484.219-.059.451.042.563.241l.729 1.313v-1.07c0-.276.224-.5.5-.5s.5.224.5.5v3c0 .228-.154.427-.375.484-.042.011-.084.016-.125.016z"/><path d="m20.333 19.333c-.276 0-.5-.224-.5-.5v-3c0-.276 1-.276 1 0v3c0 .276-.224.5-.5.5z"/><path d="m21.5 16.333h-2.333c-.276 0-.5-.224-.5-.5s.224-.5.5-.5h2.333c.276 0 .5.224.5.5s-.224.5-.5.5z"/><circle cx="10.5" cy="18.833" r=".5"/></g><path d="m22 8.667h-12c-1.103 0-2 .897-2 2v10.667c0 1.103.897 2 2 2h12c1.103 0 2-.897 2-2v-10.667c0-1.103-.897-2-2-2zm0 13.333h-12c-.368 0-.667-.299-.667-.667v-9.333h13.333v9.333c.001.368-.298.667-.666.667z" fill="#ffd200"/></svg>