<svg id="bold" enable-background="new 0 0 32 32" height="512" viewBox="0 0 32 32" width="512" xmlns="http://www.w3.org/2000/svg"><path d="m26 32h-20c-3.314 0-6-2.686-6-6v-20c0-3.314 2.686-6 6-6h20c3.314 0 6 2.686 6 6v20c0 3.314-2.686 6-6 6z" fill="#e3f8fa"/><g fill="#8ce1eb"><path d="m21.5 19.333h-1.333c-.643 0-1.167-.523-1.167-1.167v-1.666c0-.643.523-1.167 1.167-1.167h1.333c.276 0 .5.224.5.5s-.224.5-.5.5h-1.333c-.092 0-.167.075-.167.167v.333h1.5c.276 0 .5.224.5.5v1.5c0 .276-.224.5-.5.5zm-1.5-1.5v.333c0 .092.075.167.167.167h.833v-.5z"/><path d="m13.5 19.333h-.333c-.643 0-1.167-.523-1.167-1.167v-1.666c0-.643.523-1.167 1.167-1.167h.333c.643 0 1.167.523 1.167 1.167v1.667c0 .643-.524 1.166-1.167 1.166zm-.333-3c-.092 0-.167.075-.167.167v1.667c0 .092.075.167.167.167h.333c.092 0 .167-.075.167-.167v-1.667c0-.092-.075-.167-.167-.167z"/><path d="m15.833 19.333c-.276 0-.5-.224-.5-.5v-3c0-.276.224-.5.5-.5h1.083c.781 0 1.417.635 1.417 1.417s-.635 1.417-1.417 1.417h-.583v.667c0 .275-.224.499-.5.499zm.5-2.166h.583c.23 0 .417-.187.417-.417s-.187-.417-.417-.417h-.583z"/><path d="m17.02 17.313 1.167 1.167c.195.195.195.512 0 .707s-.512.195-.707 0l-1.167-1.167c-.195-.195.61-.804.707-.707z"/><circle cx="10.5" cy="18.833" r=".5"/></g><path d="m22 8.667h-12c-1.103 0-2 .897-2 2v10.667c0 1.103.897 2 2 2h12c1.103 0 2-.897 2-2v-10.667c0-1.103-.897-2-2-2zm0 13.333h-12c-.368 0-.667-.299-.667-.667v-9.333h13.333v9.333c.001.368-.298.667-.666.667z" fill="#26c6da"/></svg>