<svg id="bold" enable-background="new 0 0 32 32" height="512" viewBox="0 0 32 32" width="512" xmlns="http://www.w3.org/2000/svg"><path d="m26 32h-20c-3.314 0-6-2.686-6-6v-20c0-3.314 2.686-6 6-6h20c3.314 0 6 2.686 6 6v20c0 3.314-2.686 6-6 6z" fill="#f5e6fe"/><path d="m22 8.667h-12c-1.103 0-2 .897-2 2v10.667c0 1.103.897 2 2 2h12c1.103 0 2-.897 2-2v-10.667c0-1.103-.897-2-2-2zm0 13.333h-12c-.368 0-.667-.299-.667-.667v-9.333h13.333v9.333c.001.368-.298.667-.666.667z" fill="#be63f9"/><g fill="#d9a4fc"><path d="m14.287 13.333h-2.574c-.577 0-1.046.469-1.046 1.046v5.908c0 .577.469 1.046 1.046 1.046h2.574c.577 0 1.046-.469 1.046-1.046v-5.908c0-.577-.469-1.046-1.046-1.046zm0 1c.026 0 .046.02.046.046l-.024 3.029c-.108.047-.208.11-.288.204l-.84.933-.236-.285c-.152-.176-.372-.282-.605-.291-.23-.009-.457.08-.62.244l-.038.038.03-3.917h2.575z"/><path d="m20.287 13.333h-2.574c-.577 0-1.046.469-1.046 1.046v5.908c0 .577.469 1.046 1.046 1.046h2.574c.577 0 1.046-.469 1.046-1.046v-5.908c0-.577-.469-1.046-1.046-1.046zm0 1c.026 0 .046.02.046.046l-.024 3.029c-.092-.04-.19-.069-.295-.073-.249-.009-.497.091-.66.277l-.84.933-.236-.285c-.15-.173-.366-.276-.594-.288l.028-3.639z"/></g></svg>