<svg id="bold" enable-background="new 0 0 32 32" height="512" viewBox="0 0 32 32" width="512" xmlns="http://www.w3.org/2000/svg"><path d="m26 32h-20c-3.314 0-6-2.686-6-6v-20c0-3.314 2.686-6 6-6h20c3.314 0 6 2.686 6 6v20c0 3.314-2.686 6-6 6z" fill="#f5e6fe"/><path d="m22 8.667h-12c-1.103 0-2 .897-2 2v10.667c0 1.103.897 2 2 2h12c1.103 0 2-.897 2-2v-10.667c0-1.103-.897-2-2-2zm0 13.333h-12c-.368 0-.667-.299-.667-.667v-9.333h13.333v9.333c.001.368-.298.667-.666.667z" fill="#be63f9"/><g fill="#d9a4fc"><path d="m18.696 21.333h-5.391c-.719 0-1.304-.585-1.304-1.304v-1.362c-.001-.368.297-.667.666-.667s.667.299.667.667v1.362l5.362-.029-.029-1.333c0-.368.299-.667.667-.667s.666.299.666.667v1.362c0 .719-.585 1.304-1.304 1.304z"/><path d="m16 18.333c-.368 0-.667-.299-.667-.667v-3.666c0-.368.299-.667.667-.667s.667.299.667.667v3.667c0 .368-.299.666-.667.666z"/><path d="m17.333 16h-2.667c-.27 0-.513.162-.616.411s-.046.536.145.727l1.333 1.333c.26.26.682.26.943 0l1.333-1.333c.191-.191.248-.477.145-.727-.103-.249-.346-.411-.616-.411z"/></g></svg>