<svg id="bold" enable-background="new 0 0 32 32" height="512" viewBox="0 0 32 32" width="512" xmlns="http://www.w3.org/2000/svg"><path d="m26 32h-20c-3.314 0-6-2.686-6-6v-20c0-3.314 2.686-6 6-6h20c3.314 0 6 2.686 6 6v20c0 3.314-2.686 6-6 6z" fill="#fff9dd"/><path d="m19.5 17.833h-7c-.276 0-.5-.224-.5-.5s.224-.5.5-.5h7c.276 0 .5.224.5.5s-.224.5-.5.5z" fill="#ffe777"/><path d="m16 21.333c-.276 0-.5-.224-.5-.5v-7c0-.276.224-.5.5-.5s.5.224.5.5v7c0 .276-.224.5-.5.5z" fill="#ffe777"/><path d="m22 8.667h-12c-1.103 0-2 .897-2 2v10.667c0 1.103.897 2 2 2h12c1.103 0 2-.897 2-2v-10.667c0-1.103-.897-2-2-2zm0 13.333h-12c-.368 0-.667-.299-.667-.667v-9.333h13.333v9.333c.001.368-.298.667-.666.667z" fill="#ffd200"/><g fill="#ffe777"><path d="m18.5 19.167c-.064 0-.13-.012-.191-.038-.187-.078-.309-.26-.309-.462v-2.667c0-.202.122-.385.309-.462.187-.076.402-.034.545.109l1.333 1.333c.195.195.195.512 0 .707l-1.333 1.333c-.096.096-.224.147-.354.147z"/><path d="m13.5 19.167c-.13 0-.258-.051-.354-.146l-1.333-1.333c-.195-.195-.195-.512 0-.707l1.333-1.333c.144-.143.359-.186.545-.109.187.076.309.259.309.461v2.667c0 .202-.122.385-.309.462-.061.025-.127.038-.191.038z"/><path d="m16 21.667c-.128 0-.256-.049-.354-.146l-1.333-1.333c-.143-.143-.186-.358-.108-.545.077-.187.26-.309.462-.309h2.667c.202 0 .384.122.462.309.077.187.035.402-.108.545l-1.333 1.333c-.099.097-.227.146-.355.146z"/><path d="m17.333 15.333h-2.667c-.202 0-.384-.122-.462-.309-.077-.187-.035-.402.108-.545l1.333-1.333c.195-.195.512-.195.707 0l1.333 1.333c.143.143.186.358.108.545-.075.188-.258.309-.46.309z"/></g></svg>