<svg id="bold" enable-background="new 0 0 32 32" height="512" viewBox="0 0 32 32" width="512" xmlns="http://www.w3.org/2000/svg"><path d="m26 32h-20c-3.314 0-6-2.686-6-6v-20c0-3.314 2.686-6 6-6h20c3.314 0 6 2.686 6 6v20c0 3.314-2.686 6-6 6z" fill="#fff9dd"/><path d="m20.667 19.324v-.49c0-.827-.673-1.5-1.5-1.5h-6.333c-.827 0-1.5.673-1.5 1.5v.49z" fill="#ffe777"/><path d="m11.333 19.99v2.51c0 .827.673 1.5 1.5 1.5h6.333c.827 0 1.5-.673 1.5-1.5v-2.51z" fill="#ffe777"/><g fill="#ffd200"><path d="m19.666 18.167c-.088 0-.176-.023-.257-.071-.237-.142-.314-.449-.172-.686l2-3.333c.142-.237.45-.314.686-.172.237.142.314.449.172.686l-2 3.333c-.093.156-.259.243-.429.243z"/><path d="m12.334 18.167c-.17 0-.335-.087-.429-.243l-2-3.333c-.142-.237-.065-.544.172-.686.236-.142.544-.065.686.172l2 3.333c.142.237.065.544-.172.686-.081.048-.17.071-.257.071z"/><path d="m17.743 8.243c1.002 1.973 1.231 4.334 1.255 6.424h2.836c.276 0 .5-.224.5-.5-.001-2.812-1.945-5.185-4.591-5.924z"/><path d="m17.995 14.667c-.026-2.223-.3-4.745-1.551-6.645-.147-.01-.294-.022-.444-.022s-.297.012-.444.022c-1.251 1.899-1.525 4.422-1.551 6.645z"/><path d="m14.257 8.243c-2.646.74-4.59 3.112-4.59 5.924 0 .276.224.5.5.5h2.836c.023-2.091.252-4.452 1.254-6.424z"/></g></svg>