<svg id="bold" enable-background="new 0 0 32 32" height="512" viewBox="0 0 32 32" width="512" xmlns="http://www.w3.org/2000/svg"><path d="m26 32h-20c-3.314 0-6-2.686-6-6v-20c0-3.314 2.686-6 6-6h20c3.314 0 6 2.686 6 6v20c0 3.314-2.686 6-6 6z" fill="#fff9dd"/><path d="m12.5 21.333c-.131 0-.259-.052-.354-.146-.118-.118-.17-.288-.137-.451l.447-2.234c.019-.097.067-.186.137-.256l4.581-4.581c.441-.44 1.16-.441 1.6 0l.894.894c.441.441.441 1.159 0 1.6l-4.582 4.582c-.07.07-.159.118-.256.137l-2.234.447c-.031.005-.063.008-.096.008zm2.234-.946h.007z" fill="#ffe777"/><path d="m22 8.667h-12c-1.103 0-2 .897-2 2v10.667c0 1.103.897 2 2 2h12c1.103 0 2-.897 2-2v-10.667c0-1.103-.897-2-2-2zm0 13.333h-12c-.368 0-.667-.299-.667-.667v-9.333h13.333v9.333c.001.368-.298.667-.666.667z" fill="#ffd200"/></svg>