<svg id="bold" enable-background="new 0 0 32 32" height="512" viewBox="0 0 32 32" width="512" xmlns="http://www.w3.org/2000/svg"><path d="m26 32h-20c-3.314 0-6-2.686-6-6v-20c0-3.314 2.686-6 6-6h20c3.314 0 6 2.686 6 6v20c0 3.314-2.686 6-6 6z" fill="#fff9dd"/><g fill="#ffe777"><path d="m13.287 16.201c-.115-.251-.415-.361-.663-.244l-.124.056v-.18c0-.276-.224-.5-.5-.5s-.5.224-.5.5v.18l-.124-.057c-.249-.115-.548-.006-.663.244-.116.251-.007.548.244.664l.222.103-.179.201c-.183.207-.164.523.043.706.096.085.214.126.332.126.138 0 .275-.057.374-.168l.251-.283.251.283c.099.111.236.168.374.168.118 0 .236-.041.331-.126.207-.183.226-.499.043-.706l-.179-.201.223-.103c.251-.116.36-.413.244-.663z"/><path d="m17.287 16.201c-.115-.251-.414-.361-.663-.244l-.124.056v-.18c0-.276-.224-.5-.5-.5s-.5.224-.5.5v.18l-.124-.057c-.249-.115-.548-.006-.663.244-.116.251-.007.548.244.664l.222.103-.179.201c-.183.207-.164.523.043.706.096.085.214.126.332.126.138 0 .275-.057.374-.168l.251-.283.251.283c.099.111.236.168.374.168.118 0 .236-.041.331-.126.207-.183.226-.499.043-.706l-.179-.201.223-.103c.251-.116.36-.413.244-.663z"/><path d="m21.287 16.201c-.115-.251-.415-.361-.663-.244l-.124.056v-.18c0-.276-.224-.5-.5-.5s-.5.224-.5.5v.18l-.124-.057c-.249-.115-.548-.006-.663.244-.116.251-.007.548.244.664l.222.103-.179.201c-.183.207-.164.523.043.706.096.085.214.126.332.126.138 0 .275-.057.374-.168l.251-.283.251.283c.099.111.236.168.374.168.118 0 .236-.041.331-.126.207-.183.226-.499.043-.706l-.179-.201.223-.103c.251-.116.36-.413.244-.663z"/></g><path d="m22 8.667h-12c-1.103 0-2 .897-2 2v10.667c0 1.103.897 2 2 2h12c1.103 0 2-.897 2-2v-10.667c0-1.103-.897-2-2-2zm0 13.333h-12c-.368 0-.667-.299-.667-.667v-9.333h13.333v9.333c.001.368-.298.667-.666.667z" fill="#ffd200"/></svg>