<svg id="bold" enable-background="new 0 0 32 32" height="512" viewBox="0 0 32 32" width="512" xmlns="http://www.w3.org/2000/svg"><path d="m26 32h-20c-3.314 0-6-2.686-6-6v-20c0-3.314 2.686-6 6-6h20c3.314 0 6 2.686 6 6v20c0 3.314-2.686 6-6 6z" fill="#f5e6fe"/><g fill="#d9a4fc"><path d="m10.167 17.167h-1.667c-.276 0-.276-1 0-1h1.667c.276 0 .5.224.5.5s-.224.5-.5.5z"/><path d="m10.167 18.667h-1c-.644 0-1.167-.524-1.167-1.167v-1.667c0-.643.523-1.167 1.167-1.167h1c.276 0 .5.224.5.5s-.224.5-.5.5h-1c-.092.001-.167.076-.167.167v1.667c0 .092.075.167.167.167h1c.276 0 .5.224.5.5s-.224.5-.5.5z"/><path d="m19.5 18.667h-.333c-.644 0-1.167-.524-1.167-1.167v-1.667c0-.643.523-1.167 1.167-1.167h.333c.643 0 1.167.523 1.167 1.167v1.667c0 .643-.524 1.167-1.167 1.167zm-.333-3c-.092 0-.167.075-.167.167v1.666c0 .092.075.167.167.167h.333c.092 0 .167-.075.167-.167v-1.667c0-.092-.075-.167-.167-.167h-.333z"/><path d="m11.833 18.667c-.276 0-.5-.224-.5-.5v-3c0-.276.224-.5.5-.5h.75c.781 0 1.417.635 1.417 1.417s-.635 1.416-1.417 1.416h-.25v.667c0 .276-.224.5-.5.5zm.5-2.167h.25c.23 0 .417-.187.417-.417s-.187-.417-.417-.417h-.25z"/><path d="m12.687 16.646 1.167 1.167c.195.195.195.512 0 .707s-.512.195-.707 0l-1.167-1.167c-.196-.195.609-.804.707-.707z"/><path d="m15.167 18.667c-.276 0-.5-.224-.5-.5v-3c0-.276.224-.5.5-.5h.75c.781 0 1.417.635 1.417 1.417s-.636 1.416-1.417 1.416h-.25v.667c0 .276-.224.5-.5.5zm.5-2.167h.25c.23 0 .417-.187.417-.417s-.187-.417-.417-.417h-.25z"/><path d="m16.213 16.675 1 1.167c.18.21.156.525-.054.705-.21.179-.525.156-.705-.054l-1-1.167c-.18-.21.66-.766.759-.651z"/><path d="m21.833 18.667c-.276 0-.5-.224-.5-.5v-3c0-.276.224-.5.5-.5h.75c.781 0 1.417.635 1.417 1.417s-.635 1.416-1.417 1.416h-.25v.667c0 .276-.224.5-.5.5zm.5-2.167h.25c.23 0 .417-.187.417-.417s-.187-.417-.417-.417h-.25z"/><path d="m22.88 16.675 1 1.167c.18.21.156.525-.054.705-.21.179-.525.156-.705-.054l-1-1.167c-.18-.21.66-.766.759-.651z"/></g><path d="m23.5 19.333c-.315 0-.612-.132-.831-.356-.001.001-.002.001-.002.002v2.354c0 .368-.299.667-.667.667h-12c-.368 0-.667-.299-.667-.667v-2h-.166c-.445 0-.849-.166-1.167-.431v2.431c0 1.103.897 2 2 2h12c1.103 0 2-.897 2-2v-2.129c-.157.076-.324.129-.5.129z" fill="#be63f9"/><path d="m9.167 13.333h.167v-1.333h13.333v1.342c.488.015.941.159 1.333.397v-3.072c0-1.103-.897-2-2-2h-12c-1.103 0-2 .897-2 2v2.969c.35-.187.743-.303 1.167-.303z" fill="#be63f9"/></svg>