<svg id="bold" enable-background="new 0 0 32 32" height="512" viewBox="0 0 32 32" width="512" xmlns="http://www.w3.org/2000/svg"><path d="m26 32h-20c-3.314 0-6-2.686-6-6v-20c0-3.314 2.686-6 6-6h20c3.314 0 6 2.686 6 6v20c0 3.314-2.686 6-6 6z" fill="#f5e6fe"/><path d="m22 8.667h-12c-1.103 0-2 .897-2 2v10.667c0 1.103.897 2 2 2h12c1.103 0 2-.897 2-2v-10.667c0-1.103-.897-2-2-2zm0 13.333h-12c-.368 0-.667-.299-.667-.667v-9.333h13.333v9.333c.001.368-.298.667-.666.667z" fill="#be63f9"/><g fill="#d9a4fc"><path d="m16.282 18.938c-.089.041-.186.062-.282.062s-.193-.021-.282-.062l-2.081-.971 1.938 3.13c.091.147.252.237.425.237s.334-.09.425-.237l1.938-3.13z"/><path d="m13.782 16.563 2.218 1.035 2.218-1.035c.017-.008.035-.006.052-.012l-1.845-2.98c-.182-.294-.668-.294-.85 0l-1.845 2.98c.017.005.035.004.052.012z"/></g></svg>