<svg id="bold" enable-background="new 0 0 32 32" height="512" viewBox="0 0 32 32" width="512" xmlns="http://www.w3.org/2000/svg"><path d="m26 32h-20c-3.314 0-6-2.686-6-6v-20c0-3.314 2.686-6 6-6h20c3.314 0 6 2.686 6 6v20c0 3.314-2.686 6-6 6z" fill="#e3f8fa"/><path d="m22 8.667h-12c-1.103 0-2 .897-2 2v10.667c0 1.103.897 2 2 2h12c1.103 0 2-.897 2-2v-10.667c0-1.103-.897-2-2-2zm0 13.333h-12c-.368 0-.667-.299-.667-.667v-9.333h13.333v9.333c.001.368-.298.667-.666.667z" fill="#26c6da"/><g fill="#8ce1eb"><path d="m16.833 19.333c-.276 0-.5-.224-.5-.5v-2.167c0-.184-.15-.333-.333-.333-.184 0-.333.149-.333.333v2.167c0 .276-.224.5-.5.5s-.5-.224-.5-.5v-2.167c0-.735.598-1.333 1.333-1.333s1.333.598 1.333 1.333v2.167c0 .276-.224.5-.5.5z"/><path d="m16.833 18h-1.667c-.276 0-.276-1 0-1h1.667c.276 0 .276 1 0 1z"/><path d="m11.167 19.333c-.276 0-.5-.224-.5-.5v-2.333c0-.643.523-1.167 1.167-1.167h1c.276 0 .5.224.5.5s-.224.5-.5.5h-1c-.092 0-.167.075-.167.167v2.333c0 .276-.224.5-.5.5z"/><path d="m12.833 18h-1.667c-.276 0-.276-1 0-1h1.667c.276 0 .5.224.5.5s-.224.5-.5.5z"/><path d="m20.167 19.333h-.333c-.643 0-1.167-.523-1.167-1.167v-1.666c0-.643.523-1.167 1.167-1.167h.333c.643 0 1.167.523 1.167 1.167v1.667c-.001.643-.524 1.166-1.167 1.166zm-.334-3c-.092 0-.167.075-.167.167v1.667c0 .092.075.167.167.167h.333c.092 0 .167-.075.167-.167v-1.667c0-.092-.075-.167-.167-.167z"/><path d="m20.833 19.333c-.128 0-.256-.049-.354-.146l-.333-.333c-.195-.195-.195-.512 0-.707s.512-.195.707 0l.333.333c.195.195.195.512 0 .707-.097.098-.224.146-.353.146z"/></g></svg>