<svg id="bold" enable-background="new 0 0 32 32" height="512" viewBox="0 0 32 32" width="512" xmlns="http://www.w3.org/2000/svg"><path d="m26 32h-20c-3.314 0-6-2.686-6-6v-20c0-3.314 2.686-6 6-6h20c3.314 0 6 2.686 6 6v20c0 3.314-2.686 6-6 6z" fill="#fff9dd"/><path d="m19.889 17.216-3.576-3.576c-.094-.094-.221-.146-.354-.146-.001 0-.001 0-.001 0l-3.293.006c-.275.001-.498.223-.499.499l-.007 3.293c0 .133.053.261.146.355l3.576 3.576s0 .001.001.001c.227.227.525.34.824.34s.597-.113.825-.34l2.358-2.358c.454-.456.454-1.195 0-1.65zm-5.222-.549c-.369 0-.667-.299-.667-.667s.298-.667.667-.667c.368 0 .667.298.667.667-.001.368-.299.667-.667.667z" fill="#ffe777"/><path d="m22 8.667h-12c-1.103 0-2 .897-2 2v10.667c0 1.103.897 2 2 2h12c1.103 0 2-.897 2-2v-10.667c0-1.103-.897-2-2-2zm0 13.333h-12c-.368 0-.667-.299-.667-.667v-9.333h13.333v9.333c.001.368-.298.667-.666.667z" fill="#ffd200"/></svg>