<svg id="bold" enable-background="new 0 0 32 32" height="512" viewBox="0 0 32 32" width="512" xmlns="http://www.w3.org/2000/svg"><path d="m26 32h-20c-3.314 0-6-2.686-6-6v-20c0-3.314 2.686-6 6-6h20c3.314 0 6 2.686 6 6v20c0 3.314-2.686 6-6 6z" fill="#fff9dd"/><path d="m12.195 20.195 6.667-6.667c.26-.26 1.203.682.943.943l-6.667 6.667c-.13.13-1.203-.682-.943-.943z" fill="#ffe777"/><path d="m18.862 21.138-6.667-6.667c-.26-.26.682-1.203.943-.943l6.667 6.667c.26.261-.813 1.073-.943.943z" fill="#ffe777"/><path d="m22 8.667h-12c-1.103 0-2 .897-2 2v10.667c0 1.103.897 2 2 2h12c1.103 0 2-.897 2-2v-10.667c0-1.103-.897-2-2-2zm0 13.333h-12c-.368 0-.667-.299-.667-.667v-9.333h13.333v9.333c.001.368-.298.667-.666.667z" fill="#ffd200"/><g fill="#ffe777"><path d="m14.667 21.333h-2c-.368 0-.667-.298-.667-.667v-2c0-.27.162-.513.411-.616.25-.104.536-.046.727.145l2 2c.191.191.248.477.145.727-.103.249-.347.411-.616.411z"/><path d="m19.333 16.667c-.173 0-.344-.068-.471-.195l-2-2c-.191-.191-.248-.477-.145-.727.103-.249.346-.411.616-.411h2c.369-.001.667.298.667.666v2c0 .27-.162.513-.411.616-.083.034-.17.051-.256.051z"/><path d="m20 18.667v2c0 .368-.298.667-.667.667h-2c-.27 0-.513-.162-.616-.411-.104-.25-.046-.536.145-.727l2-2c.191-.191.477-.248.727-.145.249.103.411.346.411.616z"/><path d="m15.333 14c0 .173-.068.344-.195.471l-2 2c-.191.191-.477.248-.727.145-.249-.103-.411-.346-.411-.616v-2c0-.368.299-.667.667-.667h2c.27 0 .513.162.616.411.034.083.05.17.05.256z"/></g></svg>