<svg id="bold" enable-background="new 0 0 32 32" height="512" viewBox="0 0 32 32" width="512" xmlns="http://www.w3.org/2000/svg"><path d="m26 32h-20c-3.314 0-6-2.686-6-6v-20c0-3.314 2.686-6 6-6h20c3.314 0 6 2.686 6 6v20c0 3.314-2.686 6-6 6z" fill="#ffe6e2"/><path d="m22 8.667h-12c-1.103 0-2 .897-2 2v10.667c0 1.103.897 2 2 2h12c1.103 0 2-.897 2-2v-10.667c0-1.103-.897-2-2-2zm0 13.333h-12c-.368 0-.667-.299-.667-.667v-9.333h13.333v9.333c.001.368-.298.667-.666.667z" fill="#fc573b"/><path d="m13.282 14.139c.34 0 .615.243.615.542v2.618c0 .05.046.09.103.09s.103-.04.103-.09v-3.701c0-.299.276-.542.615-.542s.615.243.615.542v3.701c0 .05.046.09.103.09s.103-.04.103-.09v-4.062c0-.299.276-.542.615-.542s.615.243.615.542v4.062c0 .05.046.09.103.09s.103-.04.103-.09v-3.701c0-.3.275-.542.615-.542.341 0 .615.242.615.542v4.514s.663-1.083 1.641-1.083c.615 0 .821.193.821.361 0 .456-.612.271-1.231 1.805s-1.428 2.16-2.462 2.167h-1.641c-.008 0 .008 0 0 0-1.46 0-2.667-.691-2.667-1.98 0-.002 0-.004 0-.007v-1.264-3.431c.001-.299.276-.541.616-.541z" fill="#fd907e"/></svg>