<svg id="bold" enable-background="new 0 0 32 32" height="512" viewBox="0 0 32 32" width="512" xmlns="http://www.w3.org/2000/svg"><path d="m26 32h-20c-3.314 0-6-2.686-6-6v-20c0-3.314 2.686-6 6-6h20c3.314 0 6 2.686 6 6v20c0 3.314-2.686 6-6 6z" fill="#fff9dd"/><path d="m22 8.667h-12c-1.103 0-2 .897-2 2v10.667c0 1.103.897 2 2 2h12c1.103 0 2-.897 2-2v-10.667c0-1.103-.897-2-2-2zm0 13.333h-12c-.368 0-.667-.299-.667-.667v-9.333h13.333v9.333c.001.368-.298.667-.666.667z" fill="#ffd200"/><path d="m18.521 21.333h-5.043c-.448 0-.812-.364-.812-.812v-2.521h-1c-.137 0-.26-.084-.311-.212-.05-.128-.016-.273.085-.366l4.333-4c.128-.117.324-.118.452 0l1.107 1.021v-.775c0-.184.149-.333.333-.333h1.335c.184 0 .333.149.333.333v2.619l1.233 1.136c.101.093.135.239.085.366s-.173.211-.31.211h-1.007v2.522c-.001.447-.365.811-.813.811z" fill="#ffe777"/></svg>