<svg id="bold" enable-background="new 0 0 32 32" height="512" viewBox="0 0 32 32" width="512" xmlns="http://www.w3.org/2000/svg"><path d="m26 32h-20c-3.314 0-6-2.686-6-6v-20c0-3.314 2.686-6 6-6h20c3.314 0 6 2.686 6 6v20c0 3.314-2.686 6-6 6z" fill="#ffe6e2"/><path d="m19 18h-6c-.368 0-.667-.299-.667-.667s.298-.667.667-.667h6c.368 0 .667.299.667.667s-.298.667-.667.667z" fill="#fd907e"/><path d="m22 8.667h-12c-1.103 0-2 .897-2 2v10.667c0 1.103.897 2 2 2h12c1.103 0 2-.897 2-2v-10.667c0-1.103-.897-2-2-2zm0 13.333h-12c-.368 0-.667-.299-.667-.667v-9.333h13.333v9.333c.001.368-.298.667-.666.667z" fill="#fc573b"/><g fill="#fd907e"><path d="m17.333 16v2.667c0 .27.162.513.411.616s.536.046.727-.145l1.333-1.333c.26-.26.26-.682 0-.943l-1.333-1.333c-.191-.191-.477-.248-.727-.145-.248.103-.411.346-.411.616z"/><path d="m14.667 16v2.667c0 .27-.162.513-.411.616s-.536.046-.727-.145l-1.333-1.333c-.26-.26-.26-.682 0-.943l1.333-1.333c.191-.191.477-.248.727-.145.248.103.411.346.411.616z"/></g></svg>