<svg id="bold" enable-background="new 0 0 32 32" height="512" viewBox="0 0 32 32" width="512" xmlns="http://www.w3.org/2000/svg"><path d="m26 32h-20c-3.314 0-6-2.686-6-6v-20c0-3.314 2.686-6 6-6h20c3.314 0 6 2.686 6 6v20c0 3.314-2.686 6-6 6z" fill="#f5e6fe"/><g fill="#d9a4fc"><path d="m17.287 17.873c-.267-.313-.267-.767 0-1.08l.5-.58c.493-.58.793-1.293.867-2.047h-5.307c.073.753.373 1.467.867 2.047l.5.58c.267.313.267.767 0 1.08l-.5.58c-.493.58-.793 1.293-.867 2.047h5.307c-.073-.753-.373-1.467-.867-2.047z"/><path d="m18.667 14.667h-5.333c-.368 0-.667-.298-.667-.667 0-.368.298-.667.667-.667h5.333c.368 0 .667.298.667.667-.001.368-.299.667-.667.667z"/><path d="m18.667 21.333h-5.333c-.368 0-.667-.298-.667-.667 0-.368.298-.667.667-.667h5.333c.368 0 .667.298.667.667-.001.369-.299.667-.667.667z"/></g><path d="m22 8.667h-12c-1.103 0-2 .897-2 2v10.667c0 1.103.897 2 2 2h12c1.103 0 2-.897 2-2v-10.667c0-1.103-.897-2-2-2zm0 13.333h-12c-.368 0-.667-.299-.667-.667v-9.333h13.333v9.333c.001.368-.298.667-.666.667z" fill="#be63f9"/></svg>