<svg id="bold" enable-background="new 0 0 32 32" height="512" viewBox="0 0 32 32" width="512" xmlns="http://www.w3.org/2000/svg"><path d="m26 32h-20c-3.314 0-6-2.686-6-6v-20c0-3.314 2.686-6 6-6h20c3.314 0 6 2.686 6 6v20c0 3.314-2.686 6-6 6z" fill="#f5e6fe"/><g fill="#d9a4fc"><path d="m14.333 19.333c-.276 0-.5-.224-.5-.5v-3c0-.276 1-.276 1 0v3c0 .276-.224.5-.5.5z"/><path d="m11.833 18h-1.667c-.276 0-.276-1 0-1h1.667c.276 0 .276 1 0 1z"/><path d="m11.833 19.333c-.276 0-.5-.224-.5-.5v-3c0-.276.224-.5.5-.5s.5.224.5.5v3c0 .276-.224.5-.5.5z"/><path d="m10.167 19.333c-.276 0-.5-.224-.5-.5v-3c0-.276.224-.5.5-.5s.5.224.5.5v3c0 .276-.224.5-.5.5z"/><path d="m20 19.333c-.276 0-.5-.224-.5-.5v-3c0-.276.224-.5.5-.5h1c.735 0 1.333.598 1.333 1.333s-.598 1.334-1.333 1.334h-.5v.833c0 .276-.224.5-.5.5zm.5-2.333h.5c.184 0 .333-.149.333-.333s-.15-.333-.333-.333h-.5z"/><path d="m15.333 16.333h-2c-.276 0-.5-.224-.5-.5s.224-.5.5-.5h2c.276 0 .5.224.5.5s-.224.5-.5.5z"/><path d="m17.667 19.333c-.276 0-.5-.224-.5-.5v-3c0-.276 1-.276 1 0v3c0 .276-.224.5-.5.5z"/><path d="m18.667 16.333h-2c-.276 0-.5-.224-.5-.5s.224-.5.5-.5h2c.276 0 .5.224.5.5s-.224.5-.5.5z"/></g><path d="m22 8.667h-12c-1.103 0-2 .897-2 2v10.667c0 1.103.897 2 2 2h12c1.103 0 2-.897 2-2v-10.667c0-1.103-.897-2-2-2zm0 13.333h-12c-.368 0-.667-.299-.667-.667v-9.333h13.333v9.333c.001.368-.298.667-.666.667z" fill="#be63f9"/></svg>