<svg id="bold" enable-background="new 0 0 32 32" height="512" viewBox="0 0 32 32" width="512" xmlns="http://www.w3.org/2000/svg"><path d="m26 32h-20c-3.314 0-6-2.686-6-6v-20c0-3.314 2.686-6 6-6h20c3.314 0 6 2.686 6 6v20c0 3.314-2.686 6-6 6z" fill="#ffe6e2"/><g fill="#fd907e"><path d="m14.333 15.333c-.276 0-.5-.224-.5-.5v-2.333c0-.276 1-.276 1 0v2.333c0 .276-.224.5-.5.5z"/><path d="m11.833 14.667h-1.667c-.276 0-.276-1 0-1h1.667c.276 0 .276 1 0 1z"/><path d="m11.833 16c-.276 0-.5-.224-.5-.5v-3c0-.276.224-.5.5-.5s.5.224.5.5v3c0 .276-.224.5-.5.5z"/><path d="m10.167 16c-.276 0-.5-.224-.5-.5v-3c0-.276.224-.5.5-.5s.5.224.5.5v3c0 .276-.224.5-.5.5z"/><path d="m20.167 16c-.276 0-.5-.224-.5-.5v-3c0-.276.224-.5.5-.5h.833c.735 0 1.333.598 1.333 1.333s-.598 1.334-1.333 1.334h-.333v.833c0 .276-.224.5-.5.5zm.5-2.333h.333c.184 0 .333-.149.333-.333 0-.185-.149-.334-.333-.334h-.333z"/><path d="m15.333 13h-2c-.276 0-.5-.224-.5-.5s.224-.5.5-.5h2c.276 0 .5.224.5.5s-.224.5-.5.5z"/><path d="m17.667 16c-.276 0-.5-.224-.5-.5v-3c0-.276 1-.276 1 0v3c0 .276-.224.5-.5.5z"/><path d="m18.667 13h-2c-.276 0-.5-.224-.5-.5s.224-.5.5-.5h2c.276 0 .5.224.5.5s-.224.5-.5.5z"/><path d="m14.216 24h3.784c.736 0 1.333-.597 1.333-1.333v-2.406c0-.336-.271-.609-.605-.609s-.605.273-.605.609v.304c0 .056-.045.101-.101.101s-.101-.045-.101-.101v-.71c0-.336-.271-.609-.605-.609s-.605.273-.605.609v.71c0 .056-.045.101-.101.101s-.101-.045-.101-.101v-1.116c0-.336-.271-.609-.605-.609s-.605.273-.605.609v1.116c0 .056-.045.101-.101.101s-.101-.045-.101-.101v-3.957c0-.336-.271-.609-.605-.609s-.605.273-.605.609v4.762c-.263-.361-.768-.907-1.412-.907-.605 0-.807.217-.807.406 0 .512.602.304 1.211 2.028.03.085.061.168.092.249.198.516.692.854 1.245.854z"/></g><path d="m22 8h-12c-1.103 0-2 .897-2 2v10.667c0 1.103.897 2 2 2h1.319c-.119-.201-.222-.3-.312-.384-.171-.159-.482-.456-.612-.949h-.395c-.368 0-.667-.299-.667-.667v-9.333h13.333v9.333c0 .368-.299.667-.667.667h-1.333v1.333h1.334c1.103 0 2-.897 2-2v-10.667c0-1.103-.897-2-2-2z" fill="#fc573b"/></svg>