<svg id="bold" enable-background="new 0 0 32 32" height="512" viewBox="0 0 32 32" width="512" xmlns="http://www.w3.org/2000/svg"><path d="m26 32h-20c-3.314 0-6-2.686-6-6v-20c0-3.314 2.686-6 6-6h20c3.314 0 6 2.686 6 6v20c0 3.314-2.686 6-6 6z" fill="#fff9dd"/><g fill="#ffe777"><path d="m16 15.333c-.551 0-1-.449-1-1s.449-1 1-1 1 .449 1 1c0 .552-.449 1-1 1z"/><path d="m15.333 20.667v-3.333h-.667c-.368 0-.667-.299-.667-.667s.299-.667.668-.667h1.333c.368 0 .667.299.667.667v4c0 .368-1.334.368-1.334 0z"/><path d="m17.333 21.333h-2.667c-.368 0-.667-.299-.667-.667s.299-.666.668-.666h2.667c.368 0 .666.299.666.667s-.298.666-.667.666z"/></g><path d="m22 8.667h-12c-1.103 0-2 .897-2 2v10.667c0 1.103.897 2 2 2h12c1.103 0 2-.897 2-2v-10.667c0-1.103-.897-2-2-2zm0 13.333h-12c-.368 0-.667-.299-.667-.667v-9.333h13.333v9.333c.001.368-.298.667-.666.667z" fill="#ffd200"/></svg>