<svg id="bold" enable-background="new 0 0 32 32" height="512" viewBox="0 0 32 32" width="512" xmlns="http://www.w3.org/2000/svg"><path d="m26 32h-20c-3.314 0-6-2.686-6-6v-20c0-3.314 2.686-6 6-6h20c3.314 0 6 2.686 6 6v20c0 3.314-2.686 6-6 6z" fill="#ffe6e2"/><path d="m24 10.667c0-1.103-.897-2-2-2h-12c-1.103 0-2 .897-2 2v10.667c0 1.103.897 2 2 2h12c1.103 0 2-.897 2-2zm-1.333 10.666c0 .368-.299.667-.667.667h-12c-.368 0-.667-.299-.667-.667v-9.333h13.333v9.333z" fill="#fc573b"/><path d="m19.333 16.648c0-.891-.35-1.727-.986-2.354-.63-.621-1.462-.961-2.348-.961-.016 0-.032 0-.048 0-1.777.026-3.249 1.484-3.283 3.257l-.001.076c0 .918.387 1.803 1.063 2.427.101.093.27.288.27.54v.699c0 .551.449 1 1 1h2c.551 0 1-.449 1-1v-.719c0-.249.167-.441.267-.534.659-.61 1.048-1.465 1.066-2.346 0-.017 0-.034-.001-.05.001-.01.001-.023.001-.035zm-1.333.058c-.011.521-.244 1.031-.64 1.396-.371.345-.594.775-.663 1.231h-1.397c-.072-.452-.296-.877-.666-1.219-.409-.378-.634-.892-.634-1.441l.001-.063c.02-1.038.922-1.927 1.969-1.943h.029c.533 0 1.034.204 1.412.577.38.374.589.873.589 1.404 0 .012 0 .024.001.036 0 .007-.001.015-.001.022z" fill="#fd907e"/></svg>