<svg id="bold" enable-background="new 0 0 32 32" height="512" viewBox="0 0 32 32" width="512" xmlns="http://www.w3.org/2000/svg"><path d="m26 32h-20c-3.314 0-6-2.686-6-6v-20c0-3.314 2.686-6 6-6h20c3.314 0 6 2.686 6 6v20c0 3.314-2.686 6-6 6z" fill="#fff9dd"/><path d="m20.167 18.667h-3.407c-.293 0-.573-.109-.789-.307l-1.272-1.167c-.241-.22-.378-.534-.378-.86s.138-.64.378-.86l1.273-1.167c.215-.197.494-.306.787-.306h3.407c.643 0 1.167.523 1.167 1.167v2.333c0 .643-.523 1.167-1.166 1.167z" fill="#ffd200"/><path d="m22 8.667h-12c-1.103 0-2 .897-2 2v10.667c0 1.103.897 2 2 2h12c1.103 0 2-.897 2-2v-10.667c0-1.103-.897-2-2-2zm0 13.333h-12c-.368 0-.667-.299-.667-.667v-9.333h13.333v9.333c.001.368-.298.667-.666.667z" fill="#ffd200"/><path d="m15.071 19.344-1.274-1.168c-.515-.473-.811-1.145-.811-1.843 0-.699.295-1.37.81-1.842l1.239-1.136c-.066-.012-.133-.021-.203-.021h-3c-.643 0-1.167.523-1.167 1.167v5.667c0 .643.523 1.167 1.167 1.167h3c.643 0 1.167-.523 1.167-1.167v-.294c-.339-.111-.658-.283-.928-.53z" fill="#ffe777"/></svg>