<svg id="bold" enable-background="new 0 0 32 32" height="512" viewBox="0 0 32 32" width="512" xmlns="http://www.w3.org/2000/svg"><path d="m26 32h-20c-3.314 0-6-2.686-6-6v-20c0-3.314 2.686-6 6-6h20c3.314 0 6 2.686 6 6v20c0 3.314-2.686 6-6 6z" fill="#e3f8fa"/><g fill="#8ce1eb"><path d="m19.333 16.667c-.735 0-1.333-.598-1.333-1.333 0-.736.598-1.334 1.333-1.334s1.333.598 1.333 1.333c.001.735-.598 1.334-1.333 1.334z"/><path d="m16.667 20c-.735 0-1.333-.598-1.333-1.333s.598-1.333 1.333-1.333 1.333.598 1.333 1.333-.598 1.333-1.333 1.333z"/><path d="m12.667 18c-.735 0-1.333-.598-1.333-1.333s.598-1.333 1.333-1.333 1.333.598 1.333 1.333-.598 1.333-1.333 1.333z"/><path d="m17.286 18.393c-.11 0-.22-.036-.312-.109-.216-.173-.251-.487-.079-.702l1.427-1.786c.173-.216.489-.25.702-.079.216.173.251.487.079.702l-1.427 1.786c-.098.124-.243.188-.39.188z"/><path d="m15.779 18.72c-.074 0-.15-.017-.222-.052l-2.227-1.107c-.247-.123-.348-.423-.225-.671.122-.247.421-.347.671-.225l2.227 1.107c.247.123.348.423.225.671-.087.176-.264.277-.449.277z"/></g><path d="m22 8.667h-12c-1.103 0-2 .897-2 2v10.667c0 1.103.897 2 2 2h12c1.103 0 2-.897 2-2v-10.667c0-1.103-.897-2-2-2zm0 13.333h-12c-.368 0-.667-.299-.667-.667v-9.333h13.333v9.333c.001.368-.298.667-.666.667z" fill="#26c6da"/></svg>