<svg id="bold" enable-background="new 0 0 32 32" height="512" viewBox="0 0 32 32" width="512" xmlns="http://www.w3.org/2000/svg"><path d="m26 32h-20c-3.314 0-6-2.686-6-6v-20c0-3.314 2.686-6 6-6h20c3.314 0 6 2.686 6 6v20c0 3.314-2.686 6-6 6z" fill="#e3f8fa"/><path d="m22 8.667h-12c-1.103 0-2 .897-2 2v10.667c0 1.103.897 2 2 2h12c1.103 0 2-.897 2-2v-10.667c0-1.103-.897-2-2-2zm0 13.333h-12c-.368 0-.667-.299-.667-.667v-9.333h13.333v9.333c.001.368-.298.667-.666.667z" fill="#26c6da"/><path d="m16.657 21.333c-2.089 0-3.804-1.564-3.989-3.638-.024-.275.179-.518.454-.542.271-.023.518.178.542.454.139 1.554 1.425 2.726 2.993 2.726 1.66 0 3.009-1.346 3.009-3s-1.35-3-3.009-3c-.276 0-.5-.224-.5-.5s.224-.5.5-.5c2.211 0 4.009 1.794 4.009 4s-1.798 4-4.009 4z" fill="#8ce1eb"/><path d="m13 18.667c-.919 0-1.667-.748-1.667-1.667s.748-1.667 1.667-1.667 1.667.748 1.667 1.667-.748 1.667-1.667 1.667z" fill="#26c6da"/></svg>