<svg id="bold" enable-background="new 0 0 32 32" height="512" viewBox="0 0 32 32" width="512" xmlns="http://www.w3.org/2000/svg"><path d="m26 32h-20c-3.314 0-6-2.686-6-6v-20c0-3.314 2.686-6 6-6h20c3.314 0 6 2.686 6 6v20c0 3.314-2.686 6-6 6z" fill="#ffe6e2"/><path d="m17.833 20.667h-3.667c-.643 0-1.166-.524-1.166-1.167v-2.333c0-.644.523-1.167 1.167-1.167h3.667c.643 0 1.166.523 1.166 1.167v2.333c0 .643-.523 1.167-1.167 1.167z" fill="#fd907e"/><path d="m17.5 17h-3c-.276 0-.5-.224-.5-.5v-1.167c0-1.103.897-2 2-2s2 .897 2 2v1.167c0 .276-.224.5-.5.5zm-2.5-.75h2v-.917c0-.551-.449-1-1-1s-1 .449-1 1z" fill="#fd907e"/><path d="m22 8.667h-12c-1.103 0-2 .897-2 2v10.667c0 1.103.897 2 2 2h12c1.103 0 2-.897 2-2v-10.667c0-1.103-.897-2-2-2zm0 13.333h-12c-.368 0-.667-.299-.667-.667v-9.333h13.333v9.333c.001.368-.298.667-.666.667z" fill="#fc573b"/></svg>