<svg id="bold" enable-background="new 0 0 32 32" height="512" viewBox="0 0 32 32" width="512" xmlns="http://www.w3.org/2000/svg"><path d="m26 32h-20c-3.314 0-6-2.686-6-6v-20c0-3.314 2.686-6 6-6h20c3.314 0 6 2.686 6 6v20c0 3.314-2.686 6-6 6z" fill="#e3f8fa"/><path d="m16 21.333c-.105 0-.21-.033-.298-.099-.413-.307-4.035-3.067-4.035-5.409 0-1.374 1.121-2.492 2.5-2.492.709 0 1.369.298 1.833.796.464-.499 1.124-.796 1.833-.796 1.379 0 2.5 1.118 2.5 2.492 0 2.342-3.622 5.102-4.035 5.409-.088.066-.193.099-.298.099z" fill="#8ce1eb"/><path d="m22 8.667h-12c-1.103 0-2 .897-2 2v10.667c0 1.103.897 2 2 2h12c1.103 0 2-.897 2-2v-10.667c0-1.103-.897-2-2-2zm0 13.333h-12c-.368 0-.667-.299-.667-.667v-9.333h13.333v9.333c.001.368-.298.667-.666.667z" fill="#26c6da"/></svg>