<svg id="bold" enable-background="new 0 0 32 32" height="512" viewBox="0 0 32 32" width="512" xmlns="http://www.w3.org/2000/svg"><path d="m26 32h-20c-3.314 0-6-2.686-6-6v-20c0-3.314 2.686-6 6-6h20c3.314 0 6 2.686 6 6v20c0 3.314-2.686 6-6 6z" fill="#fff9dd"/><path d="m22 8.667h-12c-1.103 0-2 .897-2 2v4.246c0 1.335 1.086 2.42 2.421 2.42.716 0 1.353-.318 1.796-.813.471.498 1.133.813 1.871.813.762 0 1.44-.338 1.913-.865.473.527 1.151.865 1.913.865.738 0 1.4-.315 1.871-.813.443.495 1.08.813 1.796.813 1.335 0 2.421-1.086 2.421-2.42v-4.246c-.002-1.103-.899-2-2.002-2zm-10.493 6.087v.16c0 .599-.488 1.087-1.087 1.087-.6 0-1.087-.488-1.087-1.087v-2.246h2.174zm3.826 0c0 .687-.559 1.246-1.246 1.246-.688 0-1.247-.559-1.247-1.246v-2.087h2.493zm3.827 0c0 .687-.56 1.246-1.247 1.246s-1.246-.559-1.246-1.246v-2.087h2.493zm3.507.159c0 .599-.488 1.087-1.087 1.087s-1.087-.488-1.087-1.087v-.16-2.087h2.174z" fill="#ffd200"/><path d="m22.667 18.505v2.829c0 .367-.299.666-.667.666h-12c-.368 0-.667-.299-.667-.667v-2.829c-.495-.15-.947-.4-1.333-.727v3.556c0 1.103.897 2 2 2h12c1.103 0 2-.897 2-2v-3.556c-.386.327-.838.577-1.333.728z" fill="#ffe777"/></svg>