<svg id="bold" enable-background="new 0 0 32 32" height="512" viewBox="0 0 32 32" width="512" xmlns="http://www.w3.org/2000/svg"><path d="m26 32h-20c-3.314 0-6-2.686-6-6v-20c0-3.314 2.686-6 6-6h20c3.314 0 6 2.686 6 6v20c0 3.314-2.686 6-6 6z" fill="#ffe6e2"/><path d="m22 8.667h-12c-1.103 0-2 .897-2 2v10.667c0 1.103.897 2 2 2h12c1.103 0 2-.897 2-2v-10.667c0-1.103-.897-2-2-2zm0 13.333h-12c-.368 0-.667-.299-.667-.667v-9.333h13.333v9.333c.001.368-.298.667-.666.667z" fill="#fc573b"/><path d="m20.667 15.063v-.063c0-.919-.747-1.667-1.667-1.667h-6c-.919 0-1.667.748-1.667 1.667v4c0 .919.747 1.667 1.667 1.667h6c.919 0 1.667-.748 1.667-1.667zm-1.667-.396c.065 0 .122.024.174.056l-3.174 1.438-3.174-1.438c.051-.032.109-.056.174-.056zm0 4.666h-6c-.184 0-.333-.149-.333-.333v-2.886l3.058 1.386c.088.04.182.06.275.06s.188-.02.275-.06l3.058-1.386v2.886c0 .184-.149.333-.333.333z" fill="#fd907e"/></svg>