<svg id="bold" enable-background="new 0 0 32 32" height="512" viewBox="0 0 32 32" width="512" xmlns="http://www.w3.org/2000/svg"><path d="m26 32h-20c-3.314 0-6-2.686-6-6v-20c0-3.314 2.686-6 6-6h20c3.314 0 6 2.686 6 6v20c0 3.314-2.686 6-6 6z" fill="#ffe6e2"/><path d="m18.667 15.833c-.128 0-.256-.049-.354-.146-.195-.195-.195-.512 0-.707l2.167-2.167c.195-.195.512-.195.707 0s.195.512 0 .707l-2.167 2.167c-.097.098-.225.146-.353.146z" fill="#fd907e"/><path d="m16.667 16h-7.334c-.736 0-1.333.597-1.333 1.333v5.333c0 .737.597 1.334 1.333 1.334h7.333c.737 0 1.334-.597 1.334-1.333v-5.333c0-.737-.597-1.334-1.333-1.334zm-.334 6.667h-6.666c-.184 0-.333-.149-.333-.333v-3.667h7.333v3.667c0 .183-.15.333-.334.333z" fill="#fd907e"/><path d="m22 8h-12c-1.103 0-2 .897-2 2v5.854c.355-.32.819-.52 1.333-.52v-4h13.333v9.333c0 .368-.299.667-.667.667h-3.333v1.333h3.334c1.103 0 2-.897 2-2v-10.667c0-1.103-.897-2-2-2z" fill="#fc573b"/><path d="m20.167 16h-1.667c-.276 0-.5-.224-.5-.5v-1.667c0-.202.122-.385.309-.462.187-.076.402-.034.545.109l1.667 1.667c.143.143.186.358.108.545-.078.186-.26.308-.462.308z" fill="#fd907e"/></svg>