<svg id="bold" enable-background="new 0 0 32 32" height="512" viewBox="0 0 32 32" width="512" xmlns="http://www.w3.org/2000/svg"><path d="m26 32h-20c-3.314 0-6-2.686-6-6v-20c0-3.314 2.686-6 6-6h20c3.314 0 6 2.686 6 6v20c0 3.314-2.686 6-6 6z" fill="#fff9dd"/><g fill="#ffe777"><path d="m16.333 20h-1.667c-.368 0-.666-.298-.666-.667 0-.368.298-.667.667-.667h1.667c.184 0 .333-.15.333-.333 0-.184-.15-.333-.333-.333h-.667c-.92 0-1.667-.747-1.667-1.667 0-.919.747-1.667 1.667-1.667h1.667c.368 0 .667.298.667.667s-.299.667-.668.667h-1.667c-.184 0-.333.15-.333.333 0 .184.15.333.333.333h.667c.919 0 1.667.747 1.667 1.667s-.747 1.667-1.667 1.667z"/><path d="m16 21.333c-.368 0-.667-.298-.667-.667v-1.333c0-.368 1.333-.368 1.333 0v1.333c.001.369-.298.667-.666.667z"/><path d="m15.333 15.333v-1.333c0-.368.298-.667.667-.667.368 0 .667.298.667.667v1.333c0 .369-1.334.369-1.334 0z"/></g><path d="m22 8.667h-12c-1.103 0-2 .897-2 2v10.667c0 1.103.897 2 2 2h12c1.103 0 2-.897 2-2v-10.667c0-1.103-.897-2-2-2zm0 13.333h-12c-.368 0-.667-.299-.667-.667v-9.333h13.333v9.333c.001.368-.298.667-.666.667z" fill="#ffd200"/></svg>