<svg id="bold" enable-background="new 0 0 32 32" height="512" viewBox="0 0 32 32" width="512" xmlns="http://www.w3.org/2000/svg"><path d="m26 32h-20c-3.314 0-6-2.686-6-6v-20c0-3.314 2.686-6 6-6h20c3.314 0 6 2.686 6 6v20c0 3.314-2.686 6-6 6z" fill="#e3f8fa"/><path d="m22 8.667h-12c-1.103 0-2 .897-2 2v10.667c0 1.103.897 2 2 2h12c1.103 0 2-.897 2-2v-10.667c0-1.103-.897-2-2-2zm0 13.333h-12c-.368 0-.667-.299-.667-.667v-9.333h13.333v9.333c.001.368-.298.667-.666.667z" fill="#26c6da"/><g fill="#8ce1eb"><path d="m12 20c-.276 0-.5-.224-.5-.5v-.5c0-.276.224-.5.5-.5s.5.224.5.5v.5c0 .276-.224.5-.5.5z"/><path d="m12.139 19.333h-.972c-.276 0-.5-.224-.5-.5s.224-.5.5-.5h.972c.105 0 .195-.115.195-.25s-.089-.25-.195-.25h-.277c-.659 0-1.195-.561-1.195-1.25s.536-1.25 1.195-1.25h.972c.276 0 .5.224.5.5s-.224.5-.5.5h-.972c-.105 0-.195.115-.195.25s.089.25.195.25h.277c.659 0 1.195.561 1.195 1.25s-.536 1.25-1.195 1.25z"/><path d="m12 16.167c-.276 0-.5-.224-.5-.5v-.5c0-.276.224-.5.5-.5s.5.224.5.5v.5c0 .276-.224.5-.5.5z"/><path d="m16.167 20h-1.667c-.276 0-.5-.224-.5-.5v-1.667c0-.202.122-.384.309-.462s.402-.035.545.108l1.667 1.667c.143.143.186.358.109.545-.079.187-.261.309-.463.309z"/><path d="m14.667 19.833c-.128 0-.256-.049-.354-.146-.195-.195-.195-.512 0-.707l2.667-2.667c.195-.195.512-.195.707 0l.98.98 1.813-1.813c.195-.195.512-.195.707 0s.195.512 0 .707l-2.167 2.167c-.195.195-.512.195-.707 0l-.98-.98-2.313 2.313c-.097.098-.225.146-.353.146z"/></g></svg>