<svg id="bold" enable-background="new 0 0 32 32" height="512" viewBox="0 0 32 32" width="512" xmlns="http://www.w3.org/2000/svg"><path d="m26 32h-20c-3.314 0-6-2.686-6-6v-20c0-3.314 2.686-6 6-6h20c3.314 0 6 2.686 6 6v20c0 3.314-2.686 6-6 6z" fill="#e3f8fa"/><g fill="#8ce1eb"><path d="m12.833 18.667c-.276 0-.5-.224-.5-.5v-.794c-.18.161-.487.161-.667 0v.794c0 .276-.224.5-.5.5s-.5-.224-.5-.5v-3c0-.235.164-.439.394-.489.231-.05.464.068.561.282l.379.832.378-.832c.098-.214.332-.331.561-.282.23.05.394.253.394.489v3c0 .276-.224.5-.5.5z"/><path d="m15.167 18.667c-.276 0-.5-.224-.5-.5v-3c0-.276.224-.5.5-.5h.833c.735 0 1.333.598 1.333 1.333s-.598 1.333-1.333 1.333h-.333v.833c0 .277-.224.501-.5.501zm.5-2.334h.333c.184 0 .333-.149.333-.333s-.149-.333-.333-.333h-.333z"/><path d="m20.167 18.666h-1c-.276 0-.5-.224-.5-.5s.224-.5.5-.5h1c.092 0 .167-.075.167-.167v-1.667c0-.092-.075-.167-.167-.167h-1c-.276 0-.5-.224-.5-.5s.224-.5.5-.5h1c.643 0 1.167.523 1.167 1.167v1.668c-.001.643-.524 1.166-1.167 1.166z"/><path d="m20.833 17.166h-1.667c-.276 0-.5-.224-.5-.5s.224-.5.5-.5h1.667c.276 0 .276 1 0 1z"/></g><path d="m22 8.667h-12c-1.103 0-2 .897-2 2v10.667c0 1.103.897 2 2 2h12c1.103 0 2-.897 2-2v-10.667c0-1.103-.897-2-2-2zm0 13.333h-12c-.368 0-.667-.299-.667-.667v-9.333h13.333v9.333c.001.368-.298.667-.666.667z" fill="#26c6da"/></svg>