<svg id="bold" enable-background="new 0 0 32 32" height="512" viewBox="0 0 32 32" width="512" xmlns="http://www.w3.org/2000/svg"><path d="m26 32h-20c-3.314 0-6-2.686-6-6v-20c0-3.314 2.686-6 6-6h20c3.314 0 6 2.686 6 6v20c0 3.314-2.686 6-6 6z" fill="#ffe6e2"/><path d="m19.333 14c0-.193-.084-.377-.23-.504s-.341-.185-.531-.156l-4.667.667c-.328.047-.572.328-.572.66v3.341c-.218-.018-.448-.002-.682.055-.511.125-.932.418-1.155.803-.162.281-.205.596-.12.888.165.562.758.913 1.454.913.168 0 .342-.021.518-.063.511-.125.932-.418 1.155-.803.113-.196.164-.408.158-.617 0-.008.004-.012.004-.02v-3.919l3.335-.476v2.573c-.218-.018-.448-.002-.682.055-.511.125-.932.418-1.155.803-.162.281-.205.596-.12.888.165.561.758.912 1.454.912.168 0 .342-.021.518-.063.511-.125.932-.418 1.155-.803.112-.194.163-.404.158-.611 0-.008.005-.015.005-.023z" fill="#fd907e"/><path d="m22 8.667h-12c-1.103 0-2 .897-2 2v10.667c0 1.103.897 2 2 2h12c1.103 0 2-.897 2-2v-10.667c0-1.103-.897-2-2-2zm0 13.333h-12c-.368 0-.667-.299-.667-.667v-9.333h13.333v9.333c.001.368-.298.667-.666.667z" fill="#fc573b"/></svg>