<svg id="bold" enable-background="new 0 0 32 32" height="512" viewBox="0 0 32 32" width="512" xmlns="http://www.w3.org/2000/svg"><path d="m26 32h-20c-3.314 0-6-2.686-6-6v-20c0-3.314 2.686-6 6-6h20c3.314 0 6 2.686 6 6v20c0 3.314-2.686 6-6 6z" fill="#ffe6e2"/><path d="m12.5 21.333c-.128 0-.256-.049-.354-.146-.195-.195-.195-.512 0-.707l7-7c.195-.195.512-.195.707 0s.195.512 0 .707l-7 7c-.097.098-.225.146-.353.146z" fill="#fd907e"/><path d="m22 8.667h-12c-1.103 0-2 .897-2 2v10.667c0 1.103.897 2 2 2h12c1.103 0 2-.897 2-2v-10.667c0-1.103-.897-2-2-2zm0 13.333h-12c-.368 0-.667-.299-.667-.667v-9.333h13.333v9.333c.001.368-.298.667-.666.667z" fill="#fc573b"/><path d="m17.727 13.387c-.16-.08-.36-.067-.513.04l-2.707 1.907h-1.007c-.46 0-.833.373-.833.833v2.333c0 .46.373.833.833.833h.5l4-4v-1.5c0-.186-.107-.36-.273-.446zm1.186 2.913-3.6 3.6 1.9 1.34c.087.06.187.093.287.093.08 0 .16-.02.227-.053.166-.087.273-.26.273-.447v-2.02c.747-.08 1.333-.707 1.333-1.48 0-.406-.16-.773-.42-1.033z" fill="#fd907e"/></svg>