<svg id="bold" enable-background="new 0 0 32 32" height="512" viewBox="0 0 32 32" width="512" xmlns="http://www.w3.org/2000/svg"><path d="m26 32h-20c-3.314 0-6-2.686-6-6v-20c0-3.314 2.686-6 6-6h20c3.314 0 6 2.686 6 6v20c0 3.314-2.686 6-6 6z" fill="#e3f8fa"/><path d="m22 8.667h-12c-1.103 0-2 .897-2 2v10.667c0 1.103.897 2 2 2h12c1.103 0 2-.897 2-2v-10.667c0-1.103-.897-2-2-2zm0 13.333h-12c-.368 0-.667-.299-.667-.667v-9.333h13.333v9.333c.001.368-.298.667-.666.667z" fill="#26c6da"/><path d="m21.333 14.5c0-1.011-.822-1.833-1.833-1.833-.837 0-1.536.566-1.755 1.333h-5.245c-.643 0-1.167.523-1.167 1.167v5c0 .643.523 1.167 1.167 1.167h6.333c.643 0 1.167-.523 1.167-1.167v-3.911c.767-.22 1.333-.919 1.333-1.756zm-2.5 5.833h-6.333c-.094 0-.167-.073-.167-.167v-5c0-.094.073-.167.167-.167h5.245c.174.607.648 1.082 1.255 1.255v3.911c0 .095-.073.168-.167.168z" fill="#8ce1eb"/></svg>