<svg id="bold" enable-background="new 0 0 32 32" height="512" viewBox="0 0 32 32" width="512" xmlns="http://www.w3.org/2000/svg"><path d="m26 32h-20c-3.314 0-6-2.686-6-6v-20c0-3.314 2.686-6 6-6h20c3.314 0 6 2.686 6 6v20c0 3.314-2.686 6-6 6z" fill="#f5e6fe"/><g fill="#d9a4fc"><path d="m20.333 7.833c-1.653 0-3 1.347-3 3v2.333h6v-2.333c0-1.653-1.346-3-3-3z"/><path d="m23.5 13.833h-6.333c-.276 0-.5-.224-.5-.5s.224-.5.5-.5h6.333c.276 0 .5.224.5.5s-.224.5-.5.5z"/><path d="m20.333 15.833c-.551 0-1-.449-1-1s.449-1 1-1 1 .449 1 1c0 .552-.448 1-1 1z"/><path d="m21.966 14.5c.022.108.034.219.034.333v-.333z"/></g><path d="m20.667 17.136v4.031c0 .368-.299.667-.667.667h-10c-.368 0-.667-.299-.667-.667v-7.333h6.078c-.046-.16-.078-.326-.078-.5 0-.566.263-1.066.667-1.402v-1.098c0-.113.008-.223.017-.333h-6.017c-1.103 0-2 .897-2 2v8.667c0 1.103.897 2 2 2h10c1.103 0 2-.897 2-2v-4.722c-.349.363-.81.614-1.333.69z" fill="#be63f9"/></svg>