<svg id="bold" enable-background="new 0 0 32 32" height="512" viewBox="0 0 32 32" width="512" xmlns="http://www.w3.org/2000/svg"><path d="m26 32h-20c-3.314 0-6-2.686-6-6v-20c0-3.314 2.686-6 6-6h20c3.314 0 6 2.686 6 6v20c0 3.314-2.686 6-6 6z" fill="#e3f8fa"/><path d="m19.667 7.833c-2.389 0-4.333 1.944-4.333 4.333s1.944 4.333 4.333 4.333 4.333-1.943 4.333-4.332-1.944-4.334-4.333-4.334zm.666 6c0 .368-.299.667-.667.667s-.666-.299-.666-.667v-2.667h-.333c-.368.001-.667-.298-.667-.666s.299-.667.667-.667h1c.368 0 .667.299.667.667v3.333z" fill="#8ce1eb"/><path d="m20.667 17.74v3.427c0 .368-.299.667-.667.667h-10c-.368 0-.667-.299-.667-.667v-7.333h4.918c-.163-.528-.251-1.087-.251-1.667s.088-1.139.251-1.667h-4.251c-1.103 0-2 .897-2 2v8.667c0 1.103.897 2 2 2h10c1.103 0 2-.897 2-2v-3.842c-.42.191-.866.331-1.333.415z" fill="#26c6da"/></svg>