<svg id="bold" enable-background="new 0 0 32 32" height="512" viewBox="0 0 32 32" width="512" xmlns="http://www.w3.org/2000/svg"><path d="m26 32h-20c-3.314 0-6-2.686-6-6v-20c0-3.314 2.686-6 6-6h20c3.314 0 6 2.686 6 6v20c0 3.314-2.686 6-6 6z" fill="#fff9dd"/><path d="m18.667 15.139v-1.305c0-.276-.224-.5-.5-.5h-4.333c-.276 0-.5.224-.5.5v1.305l-.663 5.636c-.017.142.028.284.123.391s.231.168.374.168h2.167c.247 0 .457-.18.494-.424l.171-1.122.173 1.121c.037.243.247.424.494.424h2.167c.143 0 .279-.061.374-.168s.14-.249.123-.391zm-1.571 5.194-.602-3.91c-.037-.243-.247-.423-.494-.423s-.457.18-.494.424l-.602 3.91h-1.175l.549-5h3.444l.549 5h-1.175z" fill="#ffe777"/><path d="m22 8.667h-12c-1.103 0-2 .897-2 2v10.667c0 1.103.897 2 2 2h12c1.103 0 2-.897 2-2v-10.667c0-1.103-.897-2-2-2zm0 13.333h-12c-.368 0-.667-.299-.667-.667v-9.333h13.333v9.333c.001.368-.298.667-.666.667z" fill="#ffd200"/></svg>