<svg id="bold" enable-background="new 0 0 32 32" height="512" viewBox="0 0 32 32" width="512" xmlns="http://www.w3.org/2000/svg"><path d="m26 32h-20c-3.314 0-6-2.686-6-6v-20c0-3.314 2.686-6 6-6h20c3.314 0 6 2.686 6 6v20c0 3.314-2.686 6-6 6z" fill="#ffe6e2"/><path d="m19.5 14h-7c-.643 0-1.167.523-1.167 1.167v4.333c0 .643.523 1.167 1.167 1.167h7c.643 0 1.167-.523 1.167-1.167v-4.333c0-.644-.524-1.167-1.167-1.167zm-7 1h7c.092 0 .167.075.167.167v.833h-7.333v-.833c-.001-.092.074-.167.166-.167zm7 4.667h-7c-.092 0-.167-.075-.167-.167v-2.167h7.333v2.167c.001.092-.074.167-.166.167z" fill="#fd907e"/><path d="m22 8.667h-12c-1.103 0-2 .897-2 2v10.667c0 1.103.897 2 2 2h12c1.103 0 2-.897 2-2v-10.667c0-1.103-.897-2-2-2zm0 13.333h-12c-.368 0-.667-.299-.667-.667v-9.333h13.333v9.333c.001.368-.298.667-.666.667z" fill="#fc573b"/></svg>