<svg id="bold" enable-background="new 0 0 32 32" height="512" viewBox="0 0 32 32" width="512" xmlns="http://www.w3.org/2000/svg"><path d="m26 32h-20c-3.314 0-6-2.686-6-6v-20c0-3.314 2.686-6 6-6h20c3.314 0 6 2.686 6 6v20c0 3.314-2.686 6-6 6z" fill="#e3f8fa"/><path d="m22 8.667h-12c-1.103 0-2 .897-2 2v10.667c0 1.103.897 2 2 2h12c1.103 0 2-.897 2-2v-10.667c0-1.103-.897-2-2-2zm0 13.333h-12c-.368 0-.667-.299-.667-.667v-9.333h13.333v9.333c.001.368-.298.667-.666.667z" fill="#26c6da"/><path d="m20.287 13.333h-8.575c-.577 0-1.046.469-1.046 1.046v5.908c0 .577.469 1.046 1.046 1.046h8.575c.577 0 1.046-.469 1.046-1.046v-5.908c0-.577-.469-1.046-1.046-1.046zm.046 1-.023 2.99-.574-.421c-.44-.336-1.043-.315-1.477.058l-2.165 1.94c-.062.055-.149.057-.215.002l-1.458-1.212c-.434-.365-1.066-.367-1.507.003l-1.248 1.068v-4.428z" fill="#8ce1eb"/></svg>