<svg id="bold" enable-background="new 0 0 32 32" height="512" viewBox="0 0 32 32" width="512" xmlns="http://www.w3.org/2000/svg"><path d="m26 32h-20c-3.314 0-6-2.686-6-6v-20c0-3.314 2.686-6 6-6h20c3.314 0 6 2.686 6 6v20c0 3.314-2.686 6-6 6z" fill="#fff9dd"/><path d="m15.5 13.333h-3.667c-.643 0-1.167.523-1.167 1.167v3.667c0 .643.523 1.167 1.167 1.167h3.667c.643 0 1.167-.523 1.167-1.167v-3.667c0-.643-.524-1.167-1.167-1.167zm-3.667 1h3.667c.092 0 .167.075.167.167v1.724c-.485-.326-1.207-.255-1.577.218l-.346.433c-.107.132-.214.049-.25.012-.456-.456-1.198-.456-1.654 0l-.173.173v-2.56c0-.092.075-.167.166-.167z" fill="#ffe777"/><path d="m22 8.667h-12c-1.103 0-2 .897-2 2v10.667c0 1.103.897 2 2 2h12c1.103 0 2-.897 2-2v-10.667c0-1.103-.897-2-2-2zm0 13.333h-12c-.368 0-.667-.299-.667-.667v-9.333h13.333v9.333c.001.368-.298.667-.666.667z" fill="#ffd200"/><g fill="#ffe777"><path d="m20.667 16h-2.667c-.368 0-.667-.299-.667-.667s.299-.667.667-.667h2.667c.368 0 .667.299.667.667s-.299.667-.667.667z"/><path d="m20.667 18.667h-2.667c-.368 0-.667-.299-.667-.667s.299-.667.667-.667h2.667c.368 0 .667.299.667.667s-.299.667-.667.667z"/><path d="m20.667 21.333h-9.333c-.368 0-.667-.299-.667-.667s.298-.666.666-.666h9.333c.368 0 .667.299.667.667s-.298.666-.666.666z"/></g></svg>