<svg id="bold" enable-background="new 0 0 32 32" height="512" viewBox="0 0 32 32" width="512" xmlns="http://www.w3.org/2000/svg"><path d="m26 32h-20c-3.314 0-6-2.686-6-6v-20c0-3.314 2.686-6 6-6h20c3.314 0 6 2.686 6 6v20c0 3.314-2.686 6-6 6z" fill="#fff9dd"/><path d="m20.167 13.333h-3.667c-.643 0-1.167.523-1.167 1.167v5.667c0 .643.523 1.167 1.167 1.167h3.667c.643 0 1.167-.523 1.167-1.167v-5.667c-.001-.643-.524-1.167-1.167-1.167zm-3.667 1h3.667c.092 0 .167.075.167.167v3.057c-.486-.326-1.207-.254-1.577.217l-.347.433c-.106.132-.213.049-.25.012-.455-.454-1.197-.455-1.653 0l-.173.173v-3.892c-.001-.092.074-.167.166-.167z" fill="#ffe777"/><path d="m22 8.667h-12c-1.103 0-2 .897-2 2v10.667c0 1.103.897 2 2 2h12c1.103 0 2-.897 2-2v-10.667c0-1.103-.897-2-2-2zm0 13.333h-12c-.368 0-.667-.299-.667-.667v-9.333h13.333v9.333c.001.368-.298.667-.666.667z" fill="#ffd200"/><g fill="#ffe777"><path d="m13.333 15.333h-2c-.368 0-.667-.299-.667-.667s.299-.666.667-.666h2c.368 0 .667.298.667.667s-.299.666-.667.666z"/><path d="m13.333 18h-2c-.368 0-.667-.299-.667-.667s.299-.667.667-.667h2c.368 0 .667.299.667.667s-.299.667-.667.667z"/><path d="m13.333 20.667h-2c-.368 0-.667-.299-.667-.667s.299-.667.667-.667h2c.368 0 .667.299.667.667s-.299.667-.667.667z"/></g></svg>