<svg id="bold" enable-background="new 0 0 32 32" height="512" viewBox="0 0 32 32" width="512" xmlns="http://www.w3.org/2000/svg"><path d="m26 32h-20c-3.314 0-6-2.686-6-6v-20c0-3.314 2.686-6 6-6h20c3.314 0 6 2.686 6 6v20c0 3.314-2.686 6-6 6z" fill="#f5e6fe"/><path d="m17.708 20.667c-.208 0-.395-.129-.468-.325l-1.875-5c-.069-.184-.024-.39.115-.529s.346-.184.529-.115l5 1.875c.204.077.336.278.324.496-.012.219-.166.404-.378.457l-2.209.552-.552 2.209c-.053.212-.238.365-.456.378-.011.001-.021.002-.03.002z" fill="#be63f9"/><path d="m22 8.667h-12c-1.103 0-2 .897-2 2v10.667c0 1.103.897 2 2 2h12c1.103 0 2-.897 2-2v-10.667c0-1.103-.897-2-2-2zm0 13.333h-12c-.368 0-.667-.299-.667-.667v-9.333h13.333v9.333c.001.368-.298.667-.666.667z" fill="#be63f9"/><path d="m14.783 17.588c-.071.054-.137.115-.194.187l-.456.57c-.063.08-.156.089-.193.089-.04 0-.116-.009-.18-.074-.488-.487-1.282-.487-1.768 0l-.326.326v-4.186c0-.092.075-.167.167-.167h2.37c.086-.168.196-.325.333-.463.347-.347.812-.53 1.286-.533v-.005h-3.99c-.643 0-1.167.523-1.167 1.167v5.667c0 .643.523 1.167 1.167 1.167h4.333c.042 0 .081-.008.122-.012-.123-.151-.225-.322-.296-.51z" fill="#d9a4fc"/></svg>