<svg id="bold" enable-background="new 0 0 32 32" height="512" viewBox="0 0 32 32" width="512" xmlns="http://www.w3.org/2000/svg"><path d="m26 32h-20c-3.314 0-6-2.686-6-6v-20c0-3.314 2.686-6 6-6h20c3.314 0 6 2.686 6 6v20c0 3.314-2.686 6-6 6z" fill="#ffe6e2"/><path d="m20.667 20.667h-9.333c-.368 0-.667-.299-.667-.667s.299-.667.667-.667h9.333c.368 0 .667.299.667.667-.001.368-.299.667-.667.667z" fill="#fd907e"/><path d="m17.667 21.333c-.735 0-1.333-.598-1.333-1.333s.598-1.333 1.333-1.333 1.333.598 1.333 1.333-.598 1.333-1.333 1.333z" fill="#fd907e"/><path d="m22 8.667h-12c-1.103 0-2 .897-2 2v10.667c0 1.103.897 2 2 2h12c1.103 0 2-.897 2-2v-10.667c0-1.103-.897-2-2-2zm0 13.333h-12c-.368 0-.667-.299-.667-.667v-9.333h13.333v9.333c.001.368-.298.667-.666.667z" fill="#fc573b"/><path d="m20.287 12.667h-8.575c-.577 0-1.046.469-1.046 1.046v3.242c0 .577.469 1.046 1.046 1.046h8.575c.577 0 1.046-.469 1.046-1.046v-3.242c0-.577-.469-1.046-1.046-1.046zm-.123 1.046c.093 0 .168.076.167.169l-.022 1.608-.886-.612c-.409-.301-.977-.281-1.388.057l-1.948 1.67c-.046.039-.122.041-.17.003l-1.331-1.05c-.417-.322-.994-.32-1.41.01l-1.509 1.244v-2.932c0-.092.075-.167.167-.167z" fill="#fd907e"/></svg>