<svg id="bold" enable-background="new 0 0 32 32" height="512" viewBox="0 0 32 32" width="512" xmlns="http://www.w3.org/2000/svg"><path d="m26 32h-20c-3.314 0-6-2.686-6-6v-20c0-3.314 2.686-6 6-6h20c3.314 0 6 2.686 6 6v20c0 3.314-2.686 6-6 6z" fill="#ffe6e2"/><path d="m20.287 13.333h-8.575c-.577 0-1.046.469-1.046 1.046v3.908c0 .577.469 1.046 1.046 1.046h8.575c.577 0 1.046-.469 1.046-1.046v-3.908c0-.577-.469-1.046-1.046-1.046zm-8.62 1h8.667l-.02 1.801-.779-.575c-.424-.318-1.007-.297-1.427.062l-2.031 1.824c-.049.044-.118.045-.169.003l-1.373-1.139c-.427-.356-1.041-.354-1.458.004l-1.409 1.203v-3.183z" fill="#fd907e"/><path d="m22 8.667h-12c-1.103 0-2 .897-2 2v10.667c0 1.103.897 2 2 2h12c1.103 0 2-.897 2-2v-10.667c0-1.103-.897-2-2-2zm0 13.333h-12c-.368 0-.667-.299-.667-.667v-9.333h13.333v9.333c.001.368-.298.667-.666.667z" fill="#fc573b"/><path d="m20.667 21.333h-9.333c-.368 0-.667-.299-.667-.667s.298-.666.666-.666h9.333c.368 0 .667.299.667.667s-.298.666-.666.666z" fill="#fd907e"/></svg>