<svg id="bold" enable-background="new 0 0 32 32" height="512" viewBox="0 0 32 32" width="512" xmlns="http://www.w3.org/2000/svg"><path d="m26 32h-20c-3.314 0-6-2.686-6-6v-20c0-3.314 2.686-6 6-6h20c3.314 0 6 2.686 6 6v20c0 3.314-2.686 6-6 6z" fill="#f5e6fe"/><path d="m20.489 17.166c-.236.236-.235.621.002.858l.215.215c.04.04.04.104 0 .143s-.103.039-.143 0l-.502-.502c-.238-.238-.622-.239-.858-.002s-.235.621.002.858l.502.502c.04.04.04.104 0 .143s-.103.039-.143 0l-.789-.789c-.238-.238-.622-.239-.858-.002s-.235.621.002.858l.789.789c.04.04.04.104 0 .143s-.103.039-.143 0l-2.798-2.798c-.238-.238-.622-.239-.858-.002s-.235.621.002.858l3.367 3.367c-.441-.069-1.184-.098-1.64.358-.428.428-.417.724-.284.858.362.362.641-.21 2.29.578s2.709.724 3.434.01l.999-.999c.005-.005-.005.005 0 0 1.015-1.015 1.306-2.403.282-3.428-.002-.002-.003-.003-.005-.005l-2.009-2.009c-.235-.237-.62-.238-.856-.002z" fill="#be63f9"/><path d="m15.073 22.167h-5.073c-.368 0-.667-.299-.667-.667v-9.333h13.333v4.437l1.334 1.334v-7.104c0-1.103-.897-2-2-2h-12c-1.103 0-2 .897-2 2v10.666c0 1.103.897 2 2 2h5.099c-.175-.378-.208-.842-.026-1.333z" fill="#be63f9"/><path d="m15.697 21.22c.019-.019.038-.037.057-.055l-1.784-1.784c-.298-.298-.48-.676-.541-1.085-.468-.231-1.049-.157-1.436.231l-.326.326v-4.186c0-.092.075-.167.167-.167h4.333c.092 0 .167.075.167.167v1.685c.134.08.263.172.378.287l.622.622v-2.594c0-.643-.523-1.167-1.167-1.167h-4.333c-.643 0-1.167.523-1.167 1.167v5.667c0 .643.523 1.167 1.167 1.167h3.625c.073-.094.145-.188.238-.281z" fill="#d9a4fc"/></svg>