<svg id="bold" enable-background="new 0 0 32 32" height="512" viewBox="0 0 32 32" width="512" xmlns="http://www.w3.org/2000/svg"><path d="m26 32h-20c-3.314 0-6-2.686-6-6v-20c0-3.314 2.686-6 6-6h20c3.314 0 6 2.686 6 6v20c0 3.314-2.686 6-6 6z" fill="#ffe6e2"/><path d="m20 20.001c-.276 0-.5-.224-.5-.5v-4c0-.276.224-.5.5-.5s.5.224.5.5v4c0 .276-.224.5-.5.5z" fill="#fd907e"/><path d="m16.167 13.333h-4.333c-.643 0-1.167.523-1.167 1.167v5.667c0 .643.523 1.167 1.167 1.167h4.333c.643 0 1.167-.523 1.167-1.167v-5.667c-.001-.643-.524-1.167-1.167-1.167zm-4.334 1h4.333c.092 0 .167.075.167.167v3.199c-.469-.479-1.327-.455-1.744.076l-.456.57c-.063.08-.156.089-.193.089-.04 0-.116-.009-.18-.074-.488-.487-1.282-.487-1.768 0l-.326.326v-4.186c.001-.092.076-.167.167-.167z" fill="#fd907e"/><path d="m22 8.667h-12c-1.103 0-2 .897-2 2v10.667c0 1.103.897 2 2 2h12c1.103 0 2-.897 2-2v-10.667c0-1.103-.897-2-2-2zm0 13.333h-12c-.368 0-.667-.299-.667-.667v-9.333h13.333v9.333c.001.368-.298.667-.666.667z" fill="#fc573b"/><path d="m18.667 17.001c-.202 0-.384-.122-.462-.309s-.035-.402.108-.545l1.335-1.335c.195-.195.512-.195.707 0l1.333 1.333c.143.143.186.358.109.545s-.26.309-.462.309z" fill="#fd907e"/></svg>