<svg id="bold" enable-background="new 0 0 32 32" height="512" viewBox="0 0 32 32" width="512" xmlns="http://www.w3.org/2000/svg"><path d="m26 32h-20c-3.314 0-6-2.686-6-6v-20c0-3.314 2.686-6 6-6h20c3.314 0 6 2.686 6 6v20c0 3.314-2.686 6-6 6z" fill="#ffe6e2"/><path d="m22 8.667h-12c-1.103 0-2 .897-2 2v10.667c0 1.103.897 2 2 2h12c1.103 0 2-.897 2-2v-10.667c0-1.103-.897-2-2-2zm0 13.333h-12c-.368 0-.667-.299-.667-.667v-9.333h13.333v9.333c.001.368-.298.667-.666.667z" fill="#fc573b"/><g fill="#fd907e"><path d="m16 19.333c-.069 0-.139-.014-.204-.043-.067-.03-1.63-.745-1.63-2.243v-.737c0-.211.133-.4.332-.471l1.333-.477c.109-.038.228-.038.337 0l1.333.477c.199.071.332.259.332.471v.738c0 1.497-1.563 2.213-1.63 2.243-.064.028-.134.042-.203.042z"/><path d="m17.329 19.356c-.398.327-.765.503-.852.542-.151.068-.312.102-.477.102s-.326-.034-.476-.101c-.087-.039-.457-.217-.858-.547-.686.095-1.409.272-2.1.524.37.757 1.285 1.484 3.433 1.484 2.146 0 3.06-.726 3.432-1.485-.68-.248-1.385-.421-2.102-.519z"/><path d="m21.19 15.514c-.188-.373-.536-.613-.929-.641-1.609-.121-2.746-.52-3.479-1.22-.453-.429-1.111-.429-1.566.002-.73.699-1.867 1.097-3.475 1.218-.393.029-.74.267-.928.638-.213.418-.191.926.057 1.325.295.473.646 1.203.646 1.997 0 .164.081.318.216.412.136.093.308.114.462.055.623-.237 1.265-.41 1.906-.528-.337-.437-.6-1.007-.6-1.724v-.738c0-.492.311-.933.774-1.099l1.333-.477c.254-.09.531-.09.783-.001l1.336.477c.463.165.774.607.774 1.099v.738c0 .719-.263 1.289-.601 1.726.649.118 1.288.29 1.907.526.058.022.118.033.178.033.1 0 .199-.03.284-.088.135-.093.216-.247.216-.412 0-.634.218-1.309.645-2.001.249-.394.272-.899.061-1.317z"/></g></svg>