<svg id="bold" enable-background="new 0 0 32 32" height="512" viewBox="0 0 32 32" width="512" xmlns="http://www.w3.org/2000/svg"><path d="m26 32h-20c-3.314 0-6-2.686-6-6v-20c0-3.314 2.686-6 6-6h20c3.314 0 6 2.686 6 6v20c0 3.314-2.686 6-6 6z" fill="#e3f8fa"/><g fill="#8ce1eb"><path d="m17.95 20h2.878l2.591-5.922c-.075-.045-.158-.078-.252-.078h-2.592z"/><path d="m19.119 14h-2.878l-2.625 6h2.878z"/><path d="m10.786 14h-1.953c-.276 0-.5.224-.5.5v5c0 .026.011.048.015.073z"/><path d="m22.283 20h.884c.276 0 .5-.224.5-.5v-2.663z"/><path d="m9.616 20h2.545l2.625-6h-2.545z"/></g><path d="m22 8.667h-12c-1.103 0-2 .897-2 2v10.667c0 1.103.897 2 2 2h12c1.103 0 2-.897 2-2v-10.667c0-1.103-.897-2-2-2zm0 13.333h-12c-.368 0-.667-.299-.667-.667v-9.333h13.333v9.333c.001.368-.298.667-.666.667z" fill="#26c6da"/></svg>