<svg id="bold" enable-background="new 0 0 32 32" height="512" viewBox="0 0 32 32" width="512" xmlns="http://www.w3.org/2000/svg"><path d="m26 32h-20c-3.314 0-6-2.686-6-6v-20c0-3.314 2.686-6 6-6h20c3.314 0 6 2.686 6 6v20c0 3.314-2.686 6-6 6z" fill="#ffe6e2"/><path d="m22 8.667h-12c-1.103 0-2 .897-2 2v10.667c0 1.103.897 2 2 2h12c1.103 0 2-.897 2-2v-10.667c0-1.103-.897-2-2-2zm0 13.333h-12c-.368 0-.667-.299-.667-.667v-9.333h13.333v9.333c.001.368-.298.667-.666.667z" fill="#fc573b"/><g fill="#fd907e"><path d="m12.027 17.135h3.473v4.198c-.853-.421-3.193-1.8-3.473-4.198z"/><path d="m19.973 17.135c-.28 2.398-2.62 3.776-3.473 4.198v-4.198z"/><path d="m12.353 13.579 3.147-.913v3.525h-3.5v-2.159c0-.207.147-.39.353-.453z"/><path d="m20 14.032v2.159h-3.5v-3.525l3.147.913c.206.063.353.246.353.453z"/></g></svg>