<svg id="bold" enable-background="new 0 0 32 32" height="512" viewBox="0 0 32 32" width="512" xmlns="http://www.w3.org/2000/svg"><path d="m26 32h-20c-3.314 0-6-2.686-6-6v-20c0-3.314 2.686-6 6-6h20c3.314 0 6 2.686 6 6v20c0 3.314-2.686 6-6 6z" fill="#f5e6fe"/><path d="m22 8.667h-12c-1.103 0-2 .897-2 2v10.667c0 1.103.897 2 2 2h12c1.103 0 2-.897 2-2v-10.667c0-1.103-.897-2-2-2zm0 13.333h-12c-.368 0-.667-.299-.667-.667v-9.333h13.333v9.333c.001.368-.298.667-.666.667z" fill="#be63f9"/><g fill="#d9a4fc"><path d="m12.952 16.667c-.088 0-.178-.018-.264-.055-.338-.146-.493-.538-.348-.877.631-1.459 2.067-2.402 3.659-2.402 1.583 0 3.024.941 3.669 2.396.149.337-1.07.877-1.219.54-.432-.974-1.394-1.604-2.451-1.604-1.059 0-2.016.627-2.435 1.598-.107.253-.352.404-.611.404z"/><path d="m16 21.333c-1.592 0-3.033-.942-3.671-2.399-.148-.338 1.074-.871 1.221-.535.426.973 1.387 1.601 2.45 1.601 1.057 0 2.018-.63 2.451-1.604.149-.336.542-.489.88-.339.337.149.488.543.339.88-.646 1.456-2.087 2.396-3.67 2.396z"/><path d="m19.333 16.667h-1.667c-.27 0-.513-.162-.616-.411-.104-.249-.046-.536.145-.727l1.667-1.667c.191-.191.477-.248.727-.145.249.104.411.347.411.616v1.667c0 .368-.298.667-.667.667z"/><path d="m12.667 21c-.086 0-.173-.016-.255-.051-.25-.103-.412-.346-.412-.616v-1.667c0-.368.298-.666.667-.666h1.667c.27 0 .513.162.616.411.104.249.046.536-.145.727l-1.667 1.667c-.128.127-.298.195-.471.195z"/></g></svg>