<svg id="bold" enable-background="new 0 0 32 32" height="512" viewBox="0 0 32 32" width="512" xmlns="http://www.w3.org/2000/svg"><path d="m26 32h-20c-3.314 0-6-2.686-6-6v-20c0-3.314 2.686-6 6-6h20c3.314 0 6 2.686 6 6v20c0 3.314-2.686 6-6 6z" fill="#fff9dd"/><path d="m18.667 12.667c-1.838 0-3.333 1.495-3.333 3.333s1.495 3.333 3.333 3.333 3.333-1.495 3.333-3.333-1.495-3.333-3.333-3.333zm1.471 3.862c.26.26.26.682 0 .943-.13.13-.301.195-.471.195s-.341-.065-.471-.195l-.529-.529-.529.529c-.13.13-.301.195-.471.195-.171 0-.341-.065-.471-.195-.26-.26-.26-.682 0-.943l.528-.529-.529-.529c-.26-.26-.26-.682 0-.943s.682-.26.943 0l.529.529.529-.529c.26-.26.682-.26.943 0 .26.26.26.682 0 .943l-.53.529z" fill="#ffe777"/><path d="m22 8.667h-12c-1.103 0-2 .897-2 2v10.667c0 1.103.897 2 2 2h12c1.103 0 2-.897 2-2v-10.667c0-1.103-.897-2-2-2zm0 13.333h-12c-.368 0-.667-.299-.667-.667v-9.333h13.333v9.333c.001.368-.298.667-.666.667z" fill="#ffd200"/><path d="m18.667 20.667c-2.573 0-4.667-2.094-4.667-4.667 0-.227.022-.448.053-.667h-.213l-.555-.529c-.093-.089-.217-.138-.345-.138h-1.747c-.658 0-1.193.535-1.193 1.193v4.28c0 .658.535 1.193 1.193 1.193h6.447c.469 0 .872-.274 1.066-.669-.013.002-.026.004-.039.004z" fill="#ffe777"/></svg>