<svg id="bold" enable-background="new 0 0 32 32" height="512" viewBox="0 0 32 32" width="512" xmlns="http://www.w3.org/2000/svg"><path d="m26 32h-20c-3.314 0-6-2.686-6-6v-20c0-3.314 2.686-6 6-6h20c3.314 0 6 2.686 6 6v20c0 3.314-2.686 6-6 6z" fill="#f5e6fe"/><path d="m13.667 20.333c-.171 0-.341-.065-.471-.195-.26-.26-.26-.682 0-.943l4.667-4.667c.26-.26.682-.26.943 0s.26.682 0 .943l-4.667 4.667c-.131.13-.302.195-.472.195z" fill="#d9a4fc"/><path d="m22 8.667h-12c-1.103 0-2 .897-2 2v10.667c0 1.103.897 2 2 2h12c1.103 0 2-.897 2-2v-10.667c0-1.103-.897-2-2-2zm0 13.333h-12c-.368 0-.667-.299-.667-.667v-9.333h13.333v9.333c.001.368-.298.667-.666.667z" fill="#be63f9"/><g fill="#d9a4fc"><path d="m15.333 20.667h-2c-.368 0-.667-.298-.667-.667v-2c0-.27.162-.513.411-.616.25-.104.536-.046.727.145l2 2c.191.191.248.477.145.727-.103.249-.346.411-.616.411z"/><path d="m18.667 17.333c-.173 0-.344-.068-.471-.195l-2-2c-.191-.191-.248-.477-.145-.727.103-.249.346-.411.616-.411h2c.368 0 .667.299.667.667v2c0 .27-.162.513-.411.616-.084.034-.17.05-.256.05z"/></g></svg>