<svg id="bold" enable-background="new 0 0 32 32" height="512" viewBox="0 0 32 32" width="512" xmlns="http://www.w3.org/2000/svg"><path d="m26 32h-20c-3.314 0-6-2.686-6-6v-20c0-3.314 2.686-6 6-6h20c3.314 0 6 2.686 6 6v20c0 3.314-2.686 6-6 6z" fill="#e3f8fa"/><path d="m22 8.667h-12c-1.103 0-2 .897-2 2v10.667c0 1.103.897 2 2 2h12c1.103 0 2-.897 2-2v-10.667c0-1.103-.897-2-2-2zm0 13.333h-12c-.368 0-.667-.299-.667-.667v-9.333h13.333v9.333c.001.368-.298.667-.666.667z" fill="#26c6da"/><path d="m10.667 17.5v-2.333c0-.643.523-1.167 1.167-1.167h3.407c.293 0 .573.109.788.307l1.273 1.167c.241.22.378.534.378.86s-.138.64-.378.86l-1.272 1.167c-.216.198-.496.307-.789.307h-3.407c-.644-.001-1.167-.525-1.167-1.168z" fill="#26c6da"/><path d="m20.167 13.333h-3c-.07 0-.137.01-.203.021l1.239 1.136c.515.473.811 1.145.811 1.843 0 .7-.296 1.372-.812 1.844l-1.271 1.166c-.27.247-.59.42-.93.529v.294c0 .643.523 1.167 1.167 1.167h3c.643 0 1.167-.523 1.167-1.167v-5.666c-.002-.643-.525-1.167-1.168-1.167z" fill="#8ce1eb"/></svg>