<svg id="bold" enable-background="new 0 0 32 32" height="512" viewBox="0 0 32 32" width="512" xmlns="http://www.w3.org/2000/svg"><path d="m26 32h-20c-3.314 0-6-2.686-6-6v-20c0-3.314 2.686-6 6-6h20c3.314 0 6 2.686 6 6v20c0 3.314-2.686 6-6 6z" fill="#fff9dd"/><path d="m22 8.667h-12c-1.103 0-2 .897-2 2v10.667c0 1.103.897 2 2 2h12c1.103 0 2-.897 2-2v-10.667c0-1.103-.897-2-2-2zm0 13.333h-12c-.368 0-.667-.299-.667-.667v-9.333h13.333v9.333c.001.368-.298.667-.666.667z" fill="#ffd200"/><g fill="#ffe777"><path d="m20 21.333h-3.333c-.735 0-1.333-.598-1.333-1.333v-5.333c0-.735.598-1.333 1.333-1.333h3.333c.735 0 1.333.598 1.333 1.333v5.333c0 .735-.598 1.333-1.333 1.333zm-3.333-6.666v5.333h3.334l-.001-5.333z"/><path d="m17.833 13.317h1v8.033h-1z" transform="matrix(.812 -.584 .584 .812 -6.673 13.977)"/><path d="m14.317 16.833h8.033v1h-8.033z" transform="matrix(.584 -.812 .812 .584 -6.446 22.081)"/><path d="m13.333 15.333h-2c-.368 0-.667-.298-.667-.667 0-.368.299-.667.667-.667h2c.368.001.667.299.667.668 0 .368-.299.666-.667.666z"/><path d="m13.333 18h-2c-.368 0-.667-.298-.667-.667 0-.368.299-.667.667-.667h2c.368 0 .667.298.667.667s-.299.667-.667.667z"/><path d="m13.333 20.667h-2c-.368 0-.667-.298-.667-.667 0-.368.299-.667.667-.667h2c.368 0 .667.299.667.667 0 .369-.299.667-.667.667z"/></g></svg>