<svg id="bold" enable-background="new 0 0 32 32" height="512" viewBox="0 0 32 32" width="512" xmlns="http://www.w3.org/2000/svg"><path d="m26 32h-20c-3.314 0-6-2.686-6-6v-20c0-3.314 2.686-6 6-6h20c3.314 0 6 2.686 6 6v20c0 3.314-2.686 6-6 6z" fill="#f5e6fe"/><path d="m22 8.667h-12c-1.103 0-2 .897-2 2v10.667c0 1.103.897 2 2 2h12c1.103 0 2-.897 2-2v-10.667c0-1.103-.897-2-2-2zm0 13.333h-12c-.368 0-.667-.299-.667-.667v-9.333h13.333v9.333c.001.368-.298.667-.666.667z" fill="#be63f9"/><g fill="#d9a4fc"><path d="m18.456 13.999.211.001c.009 1.054-.002 1.387-.814 2.114l-.417.373-.025.559c-.009.196-.026.386-.051.568l-.001-.004-.822.153-1.633-1.633.154-.822-.006-.001c.182-.025.372-.042.568-.051l.56-.026.373-.418c.727-.813 1.096-.813 1.903-.813zm0-1.333c-1.072 0-1.853.09-2.897 1.258-1.442.066-2.65.512-3.413 1.276-.128.128-.177.315-.128.49.049.174.189.308.365.35l1.13.27c-.03.157.008.324.129.445l2.269 2.269c.098.098.225.146.354.146.031 0 .061-.011.092-.017l.27 1.129c.042.176.176.315.35.365.045.013.09.019.136.019.131 0 .258-.051.354-.146.764-.763 1.21-1.971 1.276-3.413 1.266-1.134 1.267-1.954 1.257-3.176-.003-.228-.005-.477.001-.755.003-.136-.05-.267-.146-.363-.095-.095-.227-.147-.358-.147-.002 0-.003 0-.005 0-.125.003-.945 0-1.036 0z"/><path d="m14.268 18.398c-.266-.265-.616-.398-.965-.398s-.698.133-.964.398c-.412.412-.605 1.56-.668 2.035-.021.154.032.31.142.42.095.095.222.147.354.147.022 0 .044-.001.066-.005.475-.063 1.622-.256 2.035-.668h.001c.529-.531.529-1.396-.001-1.929z"/></g></svg>