<svg id="bold" enable-background="new 0 0 32 32" height="512" viewBox="0 0 32 32" width="512" xmlns="http://www.w3.org/2000/svg"><path d="m26 32h-20c-3.314 0-6-2.686-6-6v-20c0-3.314 2.686-6 6-6h20c3.314 0 6 2.686 6 6v20c0 3.314-2.686 6-6 6z" fill="#f5e6fe"/><path d="m22 8.667h-12c-1.103 0-2 .897-2 2v10.667c0 1.103.897 2 2 2h12c1.103 0 2-.897 2-2v-10.667c0-1.103-.897-2-2-2zm0 13.333h-12c-.368 0-.667-.299-.667-.667v-9.333h13.333v9.333c.001.368-.298.667-.666.667z" fill="#be63f9"/><g fill="#d9a4fc"><path d="m20.667 14.5c0-.643-.523-1.167-1.167-1.167h-7c-.643 0-1.167.523-1.167 1.167v2c0 .248.079.477.212.667-.133.189-.212.419-.212.667v2c0 .643.523 1.167 1.167 1.167h7c.643 0 1.167-.523 1.167-1.167v-2c0-.248-.079-.477-.212-.667.133-.189.212-.419.212-.667zm-8.334 0c0-.092.075-.167.167-.167h7c.092 0 .167.075.167.167v2c0 .092-.075.167-.167.167h-7c-.092 0-.167-.075-.167-.167zm7.334 5.333c0 .092-.075.167-.167.167h-7c-.092 0-.167-.075-.167-.167v-2c0-.092.075-.167.167-.167h7c.092 0 .167.075.167.167z"/><circle cx="18.167" cy="15.5" r=".5"/><circle cx="18.167" cy="18.833" r=".5"/></g></svg>