<svg id="bold" enable-background="new 0 0 32 32" height="512" viewBox="0 0 32 32" width="512" xmlns="http://www.w3.org/2000/svg"><path d="m26 32h-20c-3.314 0-6-2.686-6-6v-20c0-3.314 2.686-6 6-6h20c3.314 0 6 2.686 6 6v20c0 3.314-2.686 6-6 6z" fill="#fff9dd"/><path d="m19.578 17.894c-.001-.001-.003-.003-.004-.004l-.341-.313c.006-.081.009-.162.009-.244s-.003-.163-.009-.244l.345-.317c.271-.255.334-.661.148-.993l-.515-.889c-.184-.327-.58-.481-.943-.369l-.44.139c-.136-.094-.278-.176-.425-.247l-.102-.452c-.083-.37-.405-.628-.784-.628h-1.036c-.379 0-.701.258-.783.627l-.102.453c-.147.07-.289.153-.425.247l-.442-.139c-.36-.111-.757.042-.938.364l-.521.901c-.182.325-.12.731.156.99l.341.313c-.006.081-.009.162-.009.244s.003.163.009.244l-.345.317c-.271.255-.334.661-.148.993l.515.889c.184.326.579.48.943.369l.44-.139c.136.094.278.176.425.247l.102.452c.081.364.411.628.784.628h1.036c.372 0 .702-.264.783-.627l.102-.453c.147-.07.289-.153.425-.247l.442.139c.359.11.757-.043.938-.364l.521-.901c.182-.325.12-.731-.152-.986zm-3.578.773c-.735 0-1.333-.598-1.333-1.333s.598-1.334 1.333-1.334 1.333.598 1.333 1.333-.598 1.334-1.333 1.334z" fill="#ffe777"/><path d="m22 8.667h-12c-1.103 0-2 .897-2 2v10.667c0 1.103.897 2 2 2h12c1.103 0 2-.897 2-2v-10.667c0-1.103-.897-2-2-2zm0 13.333h-12c-.368 0-.667-.299-.667-.667v-9.333h13.333v9.333c.001.368-.298.667-.666.667z" fill="#ffd200"/></svg>