<svg id="bold" enable-background="new 0 0 32 32" height="512" viewBox="0 0 32 32" width="512" xmlns="http://www.w3.org/2000/svg"><path d="m26 32h-20c-3.314 0-6-2.686-6-6v-20c0-3.314 2.686-6 6-6h20c3.314 0 6 2.686 6 6v20c0 3.314-2.686 6-6 6z" fill="#ffe6e2"/><g fill="#fd907e"><path d="m18 16c-.735 0-1.333-.598-1.333-1.333s.598-1.333 1.333-1.333 1.333.598 1.333 1.333-.598 1.333-1.333 1.333z"/><path d="m18 21.333c-.735 0-1.333-.598-1.333-1.333s.598-1.333 1.333-1.333 1.333.598 1.333 1.333-.598 1.333-1.333 1.333z"/><path d="m13.333 18.667c-.735 0-1.333-.598-1.333-1.333s.598-1.334 1.333-1.334 1.333.598 1.333 1.333-.597 1.334-1.333 1.334z"/><path d="m17.14 20.007c-.084 0-.169-.021-.247-.066l-2.947-1.68c-.24-.137-.324-.442-.187-.682.137-.241.442-.324.682-.187l2.947 1.68c.24.137.324.442.187.682-.093.162-.262.253-.435.253z"/><path d="m14.194 17.34c-.174 0-.342-.09-.435-.252-.137-.24-.053-.545.187-.682l2.947-1.68c.24-.137.546-.053.682.187.137.24.053.545-.187.682l-2.947 1.68c-.078.044-.163.065-.247.065z"/></g><path d="m22 8.667h-12c-1.103 0-2 .897-2 2v10.667c0 1.103.897 2 2 2h12c1.103 0 2-.897 2-2v-10.667c0-1.103-.897-2-2-2zm0 13.333h-12c-.368 0-.667-.299-.667-.667v-9.333h13.333v9.333c.001.368-.298.667-.666.667z" fill="#fc573b"/></svg>