<svg id="bold" enable-background="new 0 0 32 32" height="512" viewBox="0 0 32 32" width="512" xmlns="http://www.w3.org/2000/svg"><path d="m26 32h-20c-3.314 0-6-2.686-6-6v-20c0-3.314 2.686-6 6-6h20c3.314 0 6 2.686 6 6v20c0 3.314-2.686 6-6 6z" fill="#ffe6e2"/><g fill="#fd907e"><path d="m18 18.667h-4.667c-.306 0-.573-.208-.647-.505l-.667-2.667c-.05-.199-.005-.41.121-.572s.32-.257.525-.257h5.742l.292-.878c.116-.349.493-.539.843-.422.349.117.538.494.422.843l-1.333 4c-.089.274-.344.458-.631.458z"/><circle cx="17" cy="20.333" r="1"/><circle cx="14.333" cy="20.333" r="1"/></g><path d="m22 8.667h-12c-1.103 0-2 .897-2 2v10.667c0 1.103.897 2 2 2h12c1.103 0 2-.897 2-2v-10.667c0-1.103-.897-2-2-2zm0 13.333h-12c-.368 0-.667-.299-.667-.667v-9.333h13.333v9.333c.001.368-.298.667-.666.667z" fill="#fc573b"/></svg>