<svg id="bold" enable-background="new 0 0 32 32" height="512" viewBox="0 0 32 32" width="512" xmlns="http://www.w3.org/2000/svg"><path d="m26 32h-20c-3.314 0-6-2.686-6-6v-20c0-3.314 2.686-6 6-6h20c3.314 0 6 2.686 6 6v20c0 3.314-2.686 6-6 6z" fill="#e3f8fa"/><path d="m19.978 20.02-1.311-4.261v-1.259c0-.276-.224-.5-.5-.5h-4.333c-.276 0-.5.224-.5.5v1.258l-1.311 4.261c-.047.152-.019.316.076.444.094.128.244.203.402.203h7c.159 0 .308-.076.402-.203.093-.127.121-.292.075-.443zm-6.801-.353 1.026-3.667h3.595l1.026 3.667z" fill="#8ce1eb"/><path d="m22 8.667h-12c-1.103 0-2 .897-2 2v10.667c0 1.103.897 2 2 2h12c1.103 0 2-.897 2-2v-10.667c0-1.103-.897-2-2-2zm0 13.333h-12c-.368 0-.667-.299-.667-.667v-9.333h13.333v9.333c.001.368-.298.667-.666.667z" fill="#26c6da"/></svg>