<svg id="bold" enable-background="new 0 0 32 32" height="512" viewBox="0 0 32 32" width="512" xmlns="http://www.w3.org/2000/svg"><path d="m26 32h-20c-3.314 0-6-2.686-6-6v-20c0-3.314 2.686-6 6-6h20c3.314 0 6 2.686 6 6v20c0 3.314-2.686 6-6 6z" fill="#f5e6fe"/><path d="m22 8.667h-12c-1.103 0-2 .897-2 2v10.667c0 1.103.897 2 2 2h12c1.103 0 2-.897 2-2v-10.667c0-1.103-.897-2-2-2zm0 13.333h-12c-.368 0-.667-.299-.667-.667v-9.333h13.333v9.333c.001.368-.298.667-.666.667z" fill="#be63f9"/><path d="m15.333 15.85v-2.017c0-.187-.104-.358-.27-.444-.165-.085-.365-.072-.518.035l-2.037 1.909h-1.008c-.46 0-.833.374-.833.833v2.334c0 .46.374.833.833.833h1.008l2.037 1.909c.086.061.187.091.288.091.079 0 .158-.019.23-.056.166-.086.27-.257.27-.444v-2.017c.748-.084 1.333-.713 1.333-1.483.001-.77-.585-1.399-1.333-1.483z" fill="#be63f9"/><g fill="#d9a4fc"><path d="m19 17.333c0-.955-.485-1.847-1.298-2.388-.307-.204-.721-.122-.924.186-.204.307-.121.72.186.924.439.293.702.771.702 1.278s-.263.985-.702 1.278c-.307.204-.39.618-.186.924.128.193.34.297.555.297.127 0 .255-.036.368-.112.814-.539 1.299-1.432 1.299-2.387z"/><path d="m18.571 13.377c-.345-.131-.729.042-.861.386-.131.344.042.729.385.86 1.158.441 1.905 1.505 1.905 2.71 0 1.206-.747 2.27-1.904 2.71-.344.131-.516.516-.385.86.102.266.355.43.623.43.079 0 .16-.014.238-.044 1.678-.64 2.762-2.193 2.762-3.956s-1.085-3.316-2.763-3.956z"/></g></svg>