<svg id="bold" enable-background="new 0 0 32 32" height="512" viewBox="0 0 32 32" width="512" xmlns="http://www.w3.org/2000/svg"><path d="m26 32h-20c-3.314 0-6-2.686-6-6v-20c0-3.314 2.686-6 6-6h20c3.314 0 6 2.686 6 6v20c0 3.314-2.686 6-6 6z" fill="#ffe6e2"/><path d="m20.667 20h-9.333c-.183 0-.358-.076-.484-.208-.126-.133-.191-.312-.181-.495.162-2.97 2.504-5.297 5.331-5.297s5.169 2.327 5.332 5.297c.01.183-.055.362-.181.495-.126.132-.301.208-.484.208zm-8.575-1.333h7.815c-.409-1.917-2.014-3.333-3.908-3.333s-3.498 1.416-3.907 3.333z" fill="#fd907e"/><path d="m15.529 18.862 1.667-1.667c.26-.26.682-.26.943 0s.26.682 0 .943l-1.667 1.667c-.131.13-1.204-.683-.943-.943z" fill="#fd907e"/><path d="m22 8.667h-12c-1.103 0-2 .897-2 2v10.667c0 1.103.897 2 2 2h12c1.103 0 2-.897 2-2v-10.667c0-1.103-.897-2-2-2zm0 13.333h-12c-.368 0-.667-.299-.667-.667v-9.333h13.333v9.333c.001.368-.298.667-.666.667z" fill="#fc573b"/></svg>