<svg id="bold" enable-background="new 0 0 32 32" height="512" viewBox="0 0 32 32" width="512" xmlns="http://www.w3.org/2000/svg"><path d="m26 32h-20c-3.314 0-6-2.686-6-6v-20c0-3.314 2.686-6 6-6h20c3.314 0 6 2.686 6 6v20c0 3.314-2.686 6-6 6z" fill="#fff9dd"/><path d="m18.369 21.333c-.098 0-.196-.029-.281-.087l-2.088-1.42-2.088 1.421c-.171.117-.397.116-.568-.004-.17-.119-.249-.331-.198-.533l.65-2.566-1.954-1.669c-.155-.133-.214-.346-.149-.54s.242-.328.445-.34l2.49-.141.902-2.46c.072-.197.26-.328.469-.328s.397.131.469.328l.902 2.46 2.49.141c.204.012.38.146.445.34.065.193.007.407-.149.54l-1.954 1.669.65 2.566c.051.202-.028.413-.198.533-.084.06-.185.09-.285.09z" fill="#ffe777"/><path d="m22 8.667h-12c-1.103 0-2 .897-2 2v10.667c0 1.103.897 2 2 2h12c1.103 0 2-.897 2-2v-10.667c0-1.103-.897-2-2-2zm0 13.333h-12c-.368 0-.667-.299-.667-.667v-9.333h13.333v9.333c.001.368-.298.667-.666.667z" fill="#ffd200"/></svg>