<svg id="bold" enable-background="new 0 0 32 32" height="512" viewBox="0 0 32 32" width="512" xmlns="http://www.w3.org/2000/svg"><path d="m26 32h-20c-3.314 0-6-2.686-6-6v-20c0-3.314 2.686-6 6-6h20c3.314 0 6 2.686 6 6v20c0 3.314-2.686 6-6 6z" fill="#e3f8fa"/><g fill="#8ce1eb"><path d="m16 14.667c-1.471 0-2.667 1.196-2.667 2.667s1.196 2.666 2.667 2.666 2.667-1.196 2.667-2.667-1.196-2.666-2.667-2.666zm0 4c-.736 0-1.333-.598-1.333-1.333s.597-1.334 1.333-1.334 1.333.598 1.333 1.333-.597 1.334-1.333 1.334z"/><path d="m16 21.333c-.368 0-.667-.299-.667-.667v-1c0-.367.299-.666.667-.666s.667.299.667.667v1c0 .368-.299.666-.667.666z"/><path d="m16 15.667c-.368 0-.667-.299-.667-.667v-1c0-.368.298-.667.667-.667.368 0 .667.299.667.667v1c0 .368-.299.667-.667.667z"/><path d="m13.667 18h-1c-.369 0-.667-.298-.667-.667s.298-.667.667-.667h1c.368 0 .667.299.667.667s-.299.667-.667.667z"/><path d="m19.333 18h-1c-.368 0-.667-.299-.667-.667s.298-.667.667-.667h1c.368 0 .667.299.667.667s-.298.667-.667.667z"/></g><path d="m22 8.667h-12c-1.103 0-2 .897-2 2v10.667c0 1.103.897 2 2 2h12c1.103 0 2-.897 2-2v-10.667c0-1.103-.897-2-2-2zm0 13.333h-12c-.368 0-.667-.299-.667-.667v-9.333h13.333v9.333c.001.368-.298.667-.666.667z" fill="#26c6da"/></svg>