<svg id="bold" enable-background="new 0 0 32 32" height="512" viewBox="0 0 32 32" width="512" xmlns="http://www.w3.org/2000/svg"><path d="m26 32h-20c-3.314 0-6-2.686-6-6v-20c0-3.314 2.686-6 6-6h20c3.314 0 6 2.686 6 6v20c0 3.314-2.686 6-6 6z" fill="#ffe6e2"/><g fill="#fd907e"><path d="m20 19.333h-3.333c-.368 0-.667-.298-.667-.667 0-.368.298-.666.667-.666h3.333v-1.333h-3.333c-.369 0-.667-.299-.667-.667s.298-.667.667-.667h3.333c.735 0 1.333.598 1.333 1.333v1.334c0 .735-.598 1.333-1.333 1.333z"/><path d="m12.667 19.333h-.667c-.735 0-1.333-.598-1.333-1.333v-1.333c0-.735.598-1.333 1.333-1.333h.667c.368 0 .667.298.667.667 0 .368-.298.667-.667.667h-.667v1.332h.667c.368 0 .667.298.667.667-.001.368-.299.666-.667.666z"/><path d="m16 20c-.368 0-.667-.299-.667-.667v-4c0-.368.299-.667.667-.667s.667-.298.667-.667c0-.368-.298-.667-.667-.667-.512 0-.979.193-1.333.51-.354-.317-.822-.51-1.333-.51-.368 0-.667.298-.667.667 0 .368.298.667.667.667.368 0 .667.299.667.667v4c-.001.368-.3.667-.668.667s-.667.298-.667.667c0 .368.298.667.667.667.512 0 .979-.193 1.333-.51.354.317.822.51 1.333.51.368 0 .667-.298.667-.667.001-.369-.298-.667-.666-.667z"/></g><path d="m22 8.667h-12c-1.103 0-2 .897-2 2v10.667c0 1.103.897 2 2 2h12c1.103 0 2-.897 2-2v-10.667c0-1.103-.897-2-2-2zm0 13.333h-12c-.368 0-.667-.299-.667-.667v-9.333h13.333v9.333c.001.368-.298.667-.666.667z" fill="#fc573b"/></svg>