<svg id="bold" enable-background="new 0 0 32 32" height="512" viewBox="0 0 32 32" width="512" xmlns="http://www.w3.org/2000/svg"><path d="m26 32h-20c-3.314 0-6-2.686-6-6v-20c0-3.314 2.686-6 6-6h20c3.314 0 6 2.686 6 6v20c0 3.314-2.686 6-6 6z" fill="#f5e6fe"/><path d="m15.667 16c-.735 0-1.333-.598-1.333-1.333s.598-1.333 1.333-1.333 1.333.598 1.333 1.333-.598 1.333-1.333 1.333z" fill="#be63f9"/><path d="m16.253 14.753c.128 0 .256.049.354.146l.913.913c.195.195.195.512 0 .707s-.512.195-.707 0l-.913-.912c-.195-.195-.195-.512 0-.707.097-.098.225-.147.353-.147z" fill="#be63f9"/><path d="m20.167 21.333h-8.333c-.643 0-1.167-.523-1.167-1.167v-1c0-.643.523-1.167 1.167-1.167h8.333c.643 0 1.167.523 1.167 1.167v1c-.001.644-.524 1.167-1.167 1.167z" fill="#d9a4fc"/><path d="m22 8.667h-12c-1.103 0-2 .897-2 2v10.667c0 1.103.897 2 2 2h12c1.103 0 2-.897 2-2v-10.667c0-1.103-.897-2-2-2zm0 13.333h-12c-.368 0-.667-.299-.667-.667v-9.333h13.333v9.333c.001.368-.298.667-.666.667z" fill="#be63f9"/></svg>