<svg id="bold" enable-background="new 0 0 32 32" height="512" viewBox="0 0 32 32" width="512" xmlns="http://www.w3.org/2000/svg"><path d="m26 32h-20c-3.314 0-6-2.686-6-6v-20c0-3.314 2.686-6 6-6h20c3.314 0 6 2.686 6 6v20c0 3.314-2.686 6-6 6z" fill="#ffe6e2"/><path d="m18.833 16h-.833v-.833c0-1.103-.897-2-2-2s-2 .897-2 2v.833h-.833c-.276 0-.5.224-.5.5v3c0 1.011.822 1.833 1.833 1.833h3c1.011 0 1.833-.822 1.833-1.833v-3c0-.276-.224-.5-.5-.5zm-3.833-.833c0-.551.449-1 1-1s1 .449 1 1v.833h-2z" fill="#fd907e"/><path d="m22 8.667h-12c-1.103 0-2 .897-2 2v10.667c0 1.103.897 2 2 2h12c1.103 0 2-.897 2-2v-10.667c0-1.103-.897-2-2-2zm0 13.333h-12c-.368 0-.667-.299-.667-.667v-9.333h13.333v9.333c.001.368-.298.667-.666.667z" fill="#fc573b"/></svg>