<svg id="bold" enable-background="new 0 0 32 32" height="512" viewBox="0 0 32 32" width="512" xmlns="http://www.w3.org/2000/svg"><path d="m26 32h-20c-3.314 0-6-2.686-6-6v-20c0-3.314 2.686-6 6-6h20c3.314 0 6 2.686 6 6v20c0 3.314-2.686 6-6 6z" fill="#f5e6fe"/><path d="m20.167 21.333h-8.333c-.276 0-.5-.224-.5-.5s.224-.5.5-.5h8.333c.276 0 .5.224.5.5s-.224.5-.5.5z" fill="#d9a4fc"/><path d="m22 8.667h-12c-1.103 0-2 .897-2 2v10.667c0 1.103.897 2 2 2h12c1.103 0 2-.897 2-2v-10.667c0-1.103-.897-2-2-2zm0 13.333h-12c-.368 0-.667-.299-.667-.667v-9.333h13.333v9.333c.001.368-.298.667-.666.667z" fill="#be63f9"/><g fill="#d9a4fc"><path d="m18.107 16.333h-4.214l-.52 1.334h5.26z"/><path d="m16.913 13.293c-.147-.38-.507-.627-.913-.627-.407 0-.767.247-.913.627l-.54 1.373h2.907z"/><path d="m19.28 19.333h-6.56l-.52 1.32c0 .007 0 .007-.007.013h7.613c-.006-.006-.006-.006-.006-.013z"/></g></svg>