<svg id="bold" enable-background="new 0 0 32 32" height="512" viewBox="0 0 32 32" width="512" xmlns="http://www.w3.org/2000/svg"><path d="m26 32h-20c-3.314 0-6-2.686-6-6v-20c0-3.314 2.686-6 6-6h20c3.314 0 6 2.686 6 6v20c0 3.314-2.686 6-6 6z" fill="#fff9dd"/><g fill="#ffe777"><path d="m13.5 18c-.276 0-.5-.224-.5-.5v-2.5c0-.368-.299-.667-.667-.667s-.667.299-.667.667v2.5c0 .276-.224.5-.5.5s-.5-.224-.5-.5v-2.5c0-.919.747-1.667 1.667-1.667s1.667.748 1.667 1.667v2.5c0 .276-.224.5-.5.5z"/><path d="m13.5 16.667h-2.333c-.276 0-.276-1 0-1h2.333c.276 0 .276 1 0 1z"/><path d="m20.833 18.336h-3c-.276 0-.5-.224-.5-.5s.224-.5.5-.5h3c.276 0 .5.224.5.5s-.224.5-.5.5z"/><path d="m18.167 21.333h-.333c-.276 0-.5-.224-.5-.5s.224-.5.5-.5h.333c.827 0 1.5-.673 1.5-1.5v-.997c0-.276 1-.276 1 0v.997c0 1.379-1.122 2.5-2.5 2.5z"/><path d="m20.833 21.333c-1.05 0-2.02-.615-2.531-1.604-.127-.245-.031-.547.214-.674.247-.127.548-.03.674.215.339.656.968 1.063 1.643 1.063.276 0 .5.224.5.5s-.224.5-.5.5z"/><path d="m19.333 18.17c-.276 0-.5-.224-.5-.5v-.67c0-.276.224-.5.5-.5s.5.224.5.5v.67c0 .276-.224.5-.5.5z"/><path d="m12.5 21.333c-.128 0-.256-.049-.354-.146-.195-.195-.195-.512 0-.707l7-7c.195-.195.512-.195.707 0s.195.512 0 .707l-7 7c-.097.098-.225.146-.353.146z"/></g><path d="m22 8.667h-12c-1.103 0-2 .897-2 2v10.667c0 1.103.897 2 2 2h12c1.103 0 2-.897 2-2v-10.667c0-1.103-.897-2-2-2zm0 13.333h-12c-.368 0-.667-.299-.667-.667v-9.333h13.333v9.333c.001.368-.298.667-.666.667z" fill="#ffd200"/></svg>