<svg id="bold" enable-background="new 0 0 32 32" height="512" viewBox="0 0 32 32" width="512" xmlns="http://www.w3.org/2000/svg"><path d="m26 32h-20c-3.314 0-6-2.686-6-6v-20c0-3.314 2.686-6 6-6h20c3.314 0 6 2.686 6 6v20c0 3.314-2.686 6-6 6z" fill="#f5e6fe"/><g fill="#d9a4fc"><path d="m18.667 16.667c-.735 0-1.333-.598-1.333-1.333s.597-1.334 1.333-1.334 1.333.598 1.333 1.333-.598 1.334-1.333 1.334z"/><path d="m14 16.667c-.919 0-1.667-.748-1.667-1.667s.748-1.667 1.667-1.667 1.667.748 1.667 1.667-.748 1.667-1.667 1.667z"/><path d="m16.833 21.333h-5.667c-.276 0-.5-.224-.5-.5v-1c0-1.011.822-1.833 1.833-1.833h3c1.011 0 1.833.822 1.833 1.833v1c.001.276-.223.5-.499.5z"/></g><path d="m22 8.667h-12c-1.103 0-2 .897-2 2v10.667c0 1.103.897 2 2 2h12c1.103 0 2-.897 2-2v-10.667c0-1.103-.897-2-2-2zm0 13.333h-12c-.368 0-.667-.299-.667-.667v-9.333h13.333v9.333c.001.368-.298.667-.666.667z" fill="#be63f9"/><path d="m19.5 17.333h-1.667c-.126 0-.249.013-.367.037.726.581 1.201 1.463 1.201 2.463v.833h2.167c.276 0 .5-.224.5-.5v-1c-.001-1.01-.823-1.833-1.834-1.833z" fill="#d9a4fc"/></svg>