<svg id="bold" enable-background="new 0 0 32 32" height="512" viewBox="0 0 32 32" width="512" xmlns="http://www.w3.org/2000/svg"><path d="m26 32h-20c-3.314 0-6-2.686-6-6v-20c0-3.314 2.686-6 6-6h20c3.314 0 6 2.686 6 6v20c0 3.314-2.686 6-6 6z" fill="#ffe6e2"/><path d="m22 8.667h-12c-1.103 0-2 .897-2 2v10.667c0 1.103.897 2 2 2h12c1.103 0 2-.897 2-2v-10.667c0-1.103-.897-2-2-2zm0 13.333h-12c-.368 0-.667-.299-.667-.667v-9.333h13.333v9.333c.001.368-.298.667-.666.667z" fill="#fc573b"/><g fill="#fd907e"><path d="m15.104 15.413c-.155-.099-.349-.106-.51-.018-.16.088-.26.256-.26.439v3c0 .183.1.351.26.439.075.041.157.061.24.061.094 0 .188-.027.271-.079l2.333-1.5c.143-.092.229-.25.229-.421s-.087-.328-.229-.421z"/><path d="m20.833 13.333h-9.667c-.643 0-1.166.524-1.166 1.167v5.667c0 .643.523 1.167 1.167 1.167h9.667c.643 0 1.167-.523 1.167-1.167v-5.667c-.001-.643-.524-1.167-1.168-1.167zm.167 6.834c0 .092-.075.167-.167.167h-9.667c-.092 0-.167-.075-.167-.167v-5.667c0-.092.075-.167.167-.167h9.667c.092 0 .167.075.167.167z"/></g></svg>