<svg id="bold" enable-background="new 0 0 32 32" height="512" viewBox="0 0 32 32" width="512" xmlns="http://www.w3.org/2000/svg"><path d="m26 32h-20c-3.314 0-6-2.686-6-6v-20c0-3.314 2.686-6 6-6h20c3.314 0 6 2.686 6 6v20c0 3.314-2.686 6-6 6z" fill="#fff9dd"/><path d="m22 8.667h-12c-1.103 0-2 .897-2 2v10.667c0 1.103.897 2 2 2h12c1.103 0 2-.897 2-2v-10.667c0-1.103-.897-2-2-2zm0 13.333h-12c-.368 0-.667-.299-.667-.667v-9.333h13.333v9.333c.001.368-.298.667-.666.667z" fill="#ffd200"/><g fill="#ffe777"><path d="m20.667 14.667h-9.333c-.368 0-.667-.299-.667-.667s.299-.667.667-.667h9.333c.368 0 .667.299.667.667-.001.368-.299.667-.667.667z"/><path d="m20.287 21.333h-8.575c-.577 0-1.046-.469-1.046-1.046v-3.908c0-.577.469-1.046 1.046-1.046h8.575c.577 0 1.046.469 1.046 1.046v3.908c0 .577-.469 1.046-1.046 1.046zm-8.574-5-.046.046v3.908l8.621.046.046-3.954z"/><path d="m17.09 17.905-1.667-1c-.154-.092-.346-.095-.504-.007-.157.089-.254.255-.254.435v2c0 .18.097.346.254.435.076.043.161.065.246.065.089 0 .178-.024.257-.071l1.667-1c.151-.09.243-.253.243-.429.001-.175-.091-.338-.242-.428z"/></g></svg>