<svg id="bold" enable-background="new 0 0 32 32" height="512" viewBox="0 0 32 32" width="512" xmlns="http://www.w3.org/2000/svg"><path d="m26 32h-20c-3.314 0-6-2.686-6-6v-20c0-3.314 2.686-6 6-6h20c3.314 0 6 2.686 6 6v20c0 3.314-2.686 6-6 6z" fill="#fff9dd"/><path d="m22 8.667h-12c-1.103 0-2 .897-2 2v10.667c0 1.103.897 2 2 2h12c1.103 0 2-.897 2-2v-10.667c0-1.103-.897-2-2-2zm0 13.333h-12c-.368 0-.667-.299-.667-.667v-9.333h13.333v9.333c.001.368-.298.667-.666.667z" fill="#ffd200"/><g fill="#ffe777"><path d="m17.833 19.333c-.107 0-.215-.035-.307-.105-.217-.169-.257-.483-.087-.701l.928-1.193-.928-1.193c-.17-.218-.13-.532.087-.702.219-.17.533-.13.702.088l1.167 1.5c.141.181.141.433 0 .614l-1.167 1.5c-.098.126-.246.192-.395.192z"/><path d="m20.333 19.333c-.107 0-.215-.035-.307-.105-.217-.169-.257-.483-.087-.701l.928-1.193-.928-1.193c-.17-.218-.13-.532.087-.702.219-.17.533-.13.702.088l1.167 1.5c.141.181.141.433 0 .614l-1.167 1.5c-.098.126-.246.192-.395.192z"/><path d="m15.62 13.333h-4.574c-.577 0-1.046.469-1.046 1.046v5.908c0 .577.469 1.046 1.046 1.046h4.574c.577 0 1.046-.469 1.046-1.046v-5.908c.001-.577-.469-1.046-1.046-1.046zm0 7-4.62-.046v-5.908l.046-.046 4.62.046z"/><path d="m12.297 19.29c.065.029.134.043.203.043.121 0 .241-.044.335-.128l1.667-1.5c.105-.095.165-.23.165-.372s-.06-.277-.165-.372l-1.667-1.5c-.147-.132-.358-.165-.538-.085-.181.081-.297.26-.297.457v3c0 .198.116.377.297.457z"/></g></svg>