<svg id="bold" enable-background="new 0 0 32 32" height="512" viewBox="0 0 32 32" width="512" xmlns="http://www.w3.org/2000/svg"><path d="m26 32h-20c-3.314 0-6-2.686-6-6v-20c0-3.314 2.686-6 6-6h20c3.314 0 6 2.686 6 6v20c0 3.314-2.686 6-6 6z" fill="#f5e6fe"/><path d="m22 8.667h-12c-1.103 0-2 .897-2 2v10.667c0 1.103.897 2 2 2h12c1.103 0 2-.897 2-2v-10.667c0-1.103-.897-2-2-2zm0 13.333h-12c-.368 0-.667-.299-.667-.667v-9.333h13.333v9.333c.001.368-.298.667-.666.667z" fill="#be63f9"/><g fill="#d9a4fc"><path d="m13.333 15.333h-2c-.368 0-.667-.299-.667-.667s.299-.666.667-.666h2c.368 0 .667.298.667.667s-.299.666-.667.666z"/><path d="m13.333 18h-2c-.368 0-.667-.299-.667-.667s.299-.667.667-.667h2c.368 0 .667.299.667.667s-.299.667-.667.667z"/><path d="m13.333 20.667h-2c-.368 0-.667-.299-.667-.667s.299-.667.667-.667h2c.368 0 .667.299.667.667s-.299.667-.667.667z"/><path d="m20.954 13.333h-3.908c-.577 0-1.046.469-1.046 1.046v5.908c0 .577.469 1.046 1.046 1.046h3.908c.577 0 1.046-.469 1.046-1.046v-5.908c0-.577-.469-1.046-1.046-1.046zm0 7-3.954-.046.046-5.954h3.908c.025 0 .046.021.046.046z"/><path d="m18.453 15.757c-.153-.107-.352-.12-.518-.034-.165.086-.269.257-.269.443v2.334c0 .187.104.357.269.443.073.038.153.057.232.057.101 0 .201-.031.287-.09l1.667-1.167c.133-.093.213-.246.213-.41 0-.163-.08-.316-.213-.41z"/></g></svg>