<svg id="bold" enable-background="new 0 0 32 32" height="512" viewBox="0 0 32 32" width="512" xmlns="http://www.w3.org/2000/svg"><path d="m26 32h-20c-3.314 0-6-2.686-6-6v-20c0-3.314 2.686-6 6-6h20c3.314 0 6 2.686 6 6v20c0 3.314-2.686 6-6 6z" fill="#ffe6e2"/><path d="m22 8.667h-12c-1.103 0-2 .897-2 2v10.667c0 1.103.897 2 2 2h12c1.103 0 2-.897 2-2v-10.667c0-1.103-.897-2-2-2zm0 13.333h-12c-.368 0-.667-.299-.667-.667v-9.333h13.333v9.333c.001.368-.298.667-.666.667z" fill="#fc573b"/><g fill="#fd907e"><path d="m13.333 16h-2c-.368 0-.667-.299-.667-.667s.298-.667.667-.667h2c.368 0 .667.299.667.667s-.298.667-.667.667z"/><path d="m13.333 18.667h-2c-.368 0-.667-.299-.667-.667s.298-.667.667-.667h2c.369 0 .667.299.667.667s-.298.667-.667.667z"/><path d="m20.667 21.333h-9.333c-.368 0-.667-.299-.667-.667s.298-.666.666-.666h9.333c.368 0 .667.299.667.667s-.298.666-.666.666z"/><path d="m20.287 13.333h-3.907c-.577 0-1.046.469-1.046 1.046v3.908c0 .577.469 1.046 1.046 1.046h3.908c.577 0 1.046-.469 1.046-1.046v-3.908c-.001-.577-.47-1.046-1.047-1.046zm0 5-3.954-.046v-3.908l.046-.046 3.954.046z"/><path d="m17.254 17.769c.076.043.161.065.246.065.089 0 .178-.024.257-.071l1.667-1c.15-.09.243-.253.243-.429s-.092-.339-.243-.429l-1.667-1c-.154-.093-.347-.095-.503-.007-.157.089-.254.255-.254.435v2c0 .18.097.347.254.436z"/></g></svg>