<svg id="bold" enable-background="new 0 0 32 32" height="512" viewBox="0 0 32 32" width="512" xmlns="http://www.w3.org/2000/svg"><path d="m26 32h-20c-3.314 0-6-2.686-6-6v-20c0-3.314 2.686-6 6-6h20c3.314 0 6 2.686 6 6v20c0 3.314-2.686 6-6 6z" fill="#e3f8fa"/><path d="m17.708 20.667c-.208 0-.395-.129-.468-.325l-1.875-5c-.069-.184-.024-.39.115-.529s.346-.184.529-.115l5 1.875c.204.077.336.278.324.496-.012.219-.166.404-.378.457l-2.209.552-.552 2.209c-.053.212-.238.365-.456.378-.011.001-.021.002-.03.002z" fill="#26c6da"/><path d="m22 8.667h-12c-1.103 0-2 .897-2 2v10.667c0 1.103.897 2 2 2h12c1.103 0 2-.897 2-2v-10.667c0-1.103-.897-2-2-2zm0 13.333h-12c-.368 0-.667-.299-.667-.667v-9.333h13.333v9.333c.001.368-.298.667-.666.667z" fill="#26c6da"/><path d="m15.992 20.813-1.079-2.878-1.412 1.271c-.094.084-.214.128-.335.128-.069 0-.138-.014-.203-.043-.181-.08-.297-.259-.297-.457v-3c0-.198.116-.376.297-.457.18-.08.391-.047.538.085l.731.658-.116-.309c-.252-.671-.087-1.433.421-1.94.508-.51 1.272-.673 1.945-.419l.563.211c-.191-.202-.459-.33-.758-.33h-4.574c-.577 0-1.046.469-1.046 1.046v5.908c0 .577.469 1.046 1.046 1.046h4.574c.004 0 .007-.001.011-.001-.127-.153-.233-.327-.306-.519z" fill="#8ce1eb"/></svg>