<svg id="bold" enable-background="new 0 0 32 32" height="512" viewBox="0 0 32 32" width="512" xmlns="http://www.w3.org/2000/svg"><path d="m26 32h-20c-3.314 0-6-2.686-6-6v-20c0-3.314 2.686-6 6-6h20c3.314 0 6 2.686 6 6v20c0 3.314-2.686 6-6 6z" fill="#e3f8fa"/><path d="m22 8.667h-12c-1.103 0-2 .897-2 2v10.667c0 1.103.897 2 2 2h12c1.103 0 2-.897 2-2v-10.667c0-1.103-.897-2-2-2zm0 13.333h-12c-.368 0-.667-.299-.667-.667v-9.333h13.333v9.333c.001.368-.298.667-.666.667z" fill="#26c6da"/><g fill="#8ce1eb"><path d="m14.167 19.333c-.149 0-.297-.066-.395-.193l-1.167-1.5c-.141-.181-.141-.433 0-.614l1.167-1.5c.169-.217.482-.257.702-.088.217.169.257.483.087.702l-.928 1.193.928 1.193c.17.218.13.532-.087.701-.092.072-.2.106-.307.106z"/><path d="m11.667 19.333c-.149 0-.297-.066-.395-.193l-1.167-1.5c-.141-.181-.141-.433 0-.614l1.167-1.5c.169-.217.482-.257.702-.088.217.169.257.483.087.702l-.928 1.193.928 1.193c.17.218.13.532-.087.701-.092.072-.2.106-.307.106z"/><path d="m20.954 13.333h-4.574c-.577 0-1.046.469-1.046 1.046v5.908c0 .577.469 1.046 1.046 1.046h4.574c.577 0 1.046-.469 1.046-1.046v-5.908c0-.577-.469-1.046-1.046-1.046zm0 7-4.62-.046v-5.908l.046-.046 4.62.046z"/><path d="m17.63 19.29c.065.029.134.043.203.043.121 0 .241-.044.335-.128l1.667-1.5c.105-.095.165-.23.165-.372s-.06-.277-.165-.372l-1.667-1.5c-.147-.132-.358-.165-.538-.085-.181.08-.297.259-.297.457v3c0 .198.116.377.297.457z"/></g></svg>