<svg id="bold" enable-background="new 0 0 32 32" height="512" viewBox="0 0 32 32" width="512" xmlns="http://www.w3.org/2000/svg"><path d="m26 32h-20c-3.314 0-6-2.686-6-6v-20c0-3.314 2.686-6 6-6h20c3.314 0 6 2.686 6 6v20c0 3.314-2.686 6-6 6z" fill="#f5e6fe"/><path d="m20.489 17.166c-.236.236-.235.621.002.858l.215.215c.04.04.04.104 0 .143s-.103.039-.143 0l-.502-.502c-.238-.238-.622-.239-.858-.002s-.235.621.002.858l.502.502c.04.04.04.104 0 .143s-.103.039-.143 0l-.789-.789c-.238-.238-.622-.239-.858-.002s-.235.621.002.858l.789.789c.04.04.04.104 0 .143s-.103.039-.143 0l-2.798-2.798c-.238-.238-.622-.239-.858-.002s-.235.621.002.858l3.367 3.367c-.441-.069-1.184-.098-1.64.358-.428.428-.417.724-.284.858.362.362.641-.21 2.29.578s2.709.724 3.434.01l.999-.999c.005-.005-.005.005 0 0 1.015-1.015 1.306-2.403.282-3.428-.002-.002-.003-.003-.005-.005l-2.009-2.009c-.235-.237-.62-.238-.856-.002z" fill="#be63f9"/><path d="m15.073 22.167h-5.073c-.368 0-.667-.299-.667-.667v-9.333h13.333v4.436l1.334 1.333v-7.102c0-1.103-.897-2-2-2h-12c-1.103 0-2 .897-2 2v10.666c0 1.103.897 2 2 2h5.098c-.174-.378-.207-.842-.025-1.333z" fill="#be63f9"/><path d="m15.697 21.22c.019-.019.038-.037.057-.055l-1.784-1.784c-.181-.181-.316-.39-.41-.612l-.44.308c-.086.06-.186.09-.287.09-.079 0-.158-.019-.231-.057-.165-.086-.269-.257-.269-.443v-2.333c0-.187.104-.357.269-.443s.365-.073.518.034l.927.649c.745-.671 1.884-.663 2.62.03v-2.057c0-.577-.469-1.046-1.046-1.046h-3.908c-.577 0-1.046.469-1.046 1.046v5.908c0 .577.469 1.046 1.046 1.046h3.745c.074-.094.146-.188.239-.281z" fill="#d9a4fc"/></svg>