<svg id="bold" enable-background="new 0 0 32 32" height="512" viewBox="0 0 32 32" width="512" xmlns="http://www.w3.org/2000/svg"><path d="m26 32h-20c-3.314 0-6-2.686-6-6v-20c0-3.314 2.686-6 6-6h20c3.314 0 6 2.686 6 6v20c0 3.314-2.686 6-6 6z" fill="#e3f8fa"/><g fill="#8ce1eb"><path d="m21 18.667c-.171 0-.334-.088-.427-.239l-.907-1.484v1.223c0 .276-.224.5-.5.5s-.5-.224-.5-.5v-3c0-.224.149-.421.365-.481.215-.06.445.03.562.221l.907 1.483v-1.223c0-.276.224-.5.5-.5s.5.224.5.5v3c0 .224-.149.421-.365.481-.044.012-.09.019-.135.019z"/><path d="m15.167 18.667c-.276 0-.5-.224-.5-.5v-3c0-.276.224-.5.5-.5h.833c.735 0 1.333.598 1.333 1.333s-.598 1.333-1.333 1.333h-.333v.833c0 .277-.224.501-.5.501zm.5-2.334h.333c.184 0 .333-.149.333-.333s-.149-.333-.333-.333h-.333z"/><path d="m12 18.667c-.225 0-.422-.15-.482-.366l-.833-3c-.074-.266.082-.542.348-.616.264-.073.542.082.616.348l.351 1.266.352-1.266c.074-.266.349-.421.616-.348.266.074.422.35.348.616l-.833 3c-.061.216-.258.366-.483.366z"/></g><path d="m22 8.667h-12c-1.103 0-2 .897-2 2v10.667c0 1.103.897 2 2 2h12c1.103 0 2-.897 2-2v-10.667c0-1.103-.897-2-2-2zm0 13.333h-12c-.368 0-.667-.299-.667-.667v-9.333h13.333v9.333c.001.368-.298.667-.666.667z" fill="#26c6da"/></svg>