<svg id="bold" enable-background="new 0 0 32 32" height="512" viewBox="0 0 32 32" width="512" xmlns="http://www.w3.org/2000/svg"><path d="m26 32h-20c-3.314 0-6-2.686-6-6v-20c0-3.314 2.686-6 6-6h20c3.314 0 6 2.686 6 6v20c0 3.314-2.686 6-6 6z" fill="#ffe6e2"/><path d="m22 8.667h-12c-1.103 0-2 .897-2 2v10.667c0 1.103.897 2 2 2h12c1.103 0 2-.897 2-2v-10.667c0-1.103-.897-2-2-2zm0 13.333h-12c-.368 0-.667-.299-.667-.667v-9.333h13.333v9.333c.001.368-.298.667-.666.667z" fill="#fc573b"/><path d="m20.923 15.175-1.729-.314c-.235-.507-.745-.861-1.339-.861h-3.711c-.594 0-1.104.354-1.338.861l-1.729.314c-.238.043-.411.25-.411.492v2.667c0 .242.173.449.411.492l1.729.314c.235.506.745.86 1.339.86h3.711c.594 0 1.104-.354 1.338-.861l1.729-.314c.238-.043.411-.25.411-.492v-2.667c-.001-.241-.173-.448-.411-.491zm-2.59 3.347c0 .263-.214.478-.478.478h-3.711c-.264 0-.478-.215-.478-.478v-3.044c0-.263.214-.478.478-.478h3.711c.264 0 .478.215.478.478z" fill="#fd907e"/></svg>