<svg id="bold" enable-background="new 0 0 32 32" height="512" viewBox="0 0 32 32" width="512" xmlns="http://www.w3.org/2000/svg"><path d="m26 32h-20c-3.314 0-6-2.686-6-6v-20c0-3.314 2.686-6 6-6h20c3.314 0 6 2.686 6 6v20c0 3.314-2.686 6-6 6z" fill="#f5e6fe"/><g fill="#d9a4fc"><path d="m20.167 16.667h-8.333c-.643 0-1.167-.523-1.167-1.167v-1c0-.643.523-1.167 1.167-1.167h8.333c.643 0 1.167.523 1.167 1.167v1c-.001.643-.524 1.167-1.167 1.167z"/><path d="m20.5 21.333h-1c-.46 0-.833-.374-.833-.833v-1.667c0-.46.374-.833.833-.833h1c.46 0 .833.374.833.833v1.667c0 .46-.373.833-.833.833z"/><path d="m12.5 21.333h-1c-.46 0-.833-.374-.833-.833v-1.667c0-.46.374-.833.833-.833h1c.46 0 .833.374.833.833v1.667c0 .46-.373.833-.833.833z"/><path d="m16.5 21.333h-1c-.46 0-.833-.374-.833-.833v-1.667c0-.46.374-.833.833-.833h1c.46 0 .833.374.833.833v1.667c0 .46-.373.833-.833.833z"/><path d="m22 8.667h-12c-1.103 0-2 .897-2 2v10.667c0 1.103.897 2 2 2h12c1.103 0 2-.897 2-2v-10.667c0-1.103-.897-2-2-2zm0 13.333h-12c-.368 0-.667-.299-.667-.667v-9.333h13.333v9.333c.001.368-.298.667-.666.667z"/></g></svg>