<svg id="bold" enable-background="new 0 0 32 32" height="512" viewBox="0 0 32 32" width="512" xmlns="http://www.w3.org/2000/svg"><path d="m26 32h-20c-3.314 0-6-2.686-6-6v-20c0-3.314 2.686-6 6-6h20c3.314 0 6 2.686 6 6v20c0 3.314-2.686 6-6 6z" fill="#e3f8fa"/><g fill="#26c6da"><path d="m22 8.667h-12c-1.103 0-2 .897-2 2v10.667c0 1.103.897 2 2 2h12c1.103 0 2-.897 2-2v-10.667c0-1.103-.897-2-2-2zm0 13.333h-12c-.368 0-.667-.299-.667-.667v-9.333h13.333v9.333c.001.368-.298.667-.666.667z"/><path d="m15.833 20c-.128 0-.256-.049-.354-.146-.195-.195-.195-.512 0-.707l2.333-2.333c.195-.195.512-.195.707 0s.195.512 0 .707l-2.333 2.333c-.097.097-.224.146-.353.146z"/><path d="m21.187 14.146c-.104-.104-.249-.157-.395-.145-1.485.122-2.514.569-3.438 1.493-.9.898-1.2 1.891-.916 3.035.044.18.185.32.365.365.097.024.193.039.288.055l1.93-1.93-1.101 1.946c.691-.076 1.328-.393 1.919-.986.925-.925 1.372-1.953 1.493-3.439.012-.145-.041-.29-.145-.394z"/></g><path d="m15.833 20.667c-.312 0-.605-.121-.825-.342-.221-.22-.342-.513-.342-.825s.121-.605.342-.825l.678-.678c-.073-.999.254-1.917.981-2.738v-.759c0-.643-.523-1.167-1.167-1.167h-3.667c-.643 0-1.167.523-1.167 1.167v5.667c0 .643.523 1.167 1.167 1.167h3.667c.587 0 1.069-.437 1.15-1.002-.219.216-.508.335-.817.335z" fill="#8ce1eb"/></svg>