<svg id="bold" enable-background="new 0 0 32 32" height="512" viewBox="0 0 32 32" width="512" xmlns="http://www.w3.org/2000/svg"><path d="m26 32h-20c-3.314 0-6-2.686-6-6v-20c0-3.314 2.686-6 6-6h20c3.314 0 6 2.686 6 6v20c0 3.314-2.686 6-6 6z" fill="#fff9dd"/><g fill="#ffe777"><path d="m21.5 19.333c-.16 0-.314-.077-.41-.213l-.757-1.082-.757 1.082c-.124.178-.353.256-.56.19-.208-.066-.35-.259-.35-.477v-3c0-.276.224-.5.5-.5s.5.224.5.5v1.414l.257-.367c.188-.267.632-.267.819 0l.258.367v-1.414c0-.276.224-.5.5-.5s.5.224.5.5v3c0 .218-.141.411-.35.477-.049.016-.1.023-.15.023z"/><path d="m17.167 19.333c-.16 0-.314-.077-.41-.213l-.757-1.082-.757 1.082c-.125.178-.352.256-.56.19s-.35-.259-.35-.477v-3c0-.276.224-.5.5-.5s.5.224.5.5v1.414l.257-.367c.188-.267.632-.267.819 0l.257.367v-1.414c0-.276.224-.5.5-.5s.5.224.5.5v3c0 .218-.141.411-.35.477-.048.016-.099.023-.149.023z"/><path d="m12.833 19.333c-.16 0-.314-.077-.41-.213l-.757-1.082-.757 1.082c-.125.178-.354.256-.56.19-.208-.066-.349-.259-.349-.477v-3c0-.276.224-.5.5-.5s.5.224.5.5v1.414l.257-.367c.188-.267.632-.267.819 0l.257.367v-1.414c0-.276.224-.5.5-.5s.5.224.5.5v3c0 .218-.141.411-.35.477-.049.016-.1.023-.15.023z"/></g><path d="m22 8.667h-12c-1.103 0-2 .897-2 2v10.667c0 1.103.897 2 2 2h12c1.103 0 2-.897 2-2v-10.667c0-1.103-.897-2-2-2zm0 13.333h-12c-.368 0-.667-.299-.667-.667v-9.333h13.333v9.333c.001.368-.298.667-.666.667z" fill="#ffd200"/></svg>