<svg id="bold" enable-background="new 0 0 32 32" height="512" viewBox="0 0 32 32" width="512" xmlns="http://www.w3.org/2000/svg"><path d="m26 32h-20c-3.314 0-6-2.686-6-6v-20c0-3.314 2.686-6 6-6h20c3.314 0 6 2.686 6 6v20c0 3.314-2.686 6-6 6z" fill="#e3f8fa"/><path d="m15.667 12.678c-2.022 0-3.667 1.645-3.667 3.667s1.645 3.667 3.667 3.667 3.667-1.645 3.667-3.667-1.646-3.667-3.667-3.667zm0 6c-1.287 0-2.333-1.047-2.333-2.333 0-1.287 1.047-2.333 2.333-2.333s2.333 1.046 2.333 2.333c0 1.286-1.047 2.333-2.333 2.333z" fill="#8ce1eb"/><path d="m17.867 17.845c.171 0 .341.065.471.195l2.144 2.144c.26.26.26.682 0 .943s-.682.26-.943 0l-2.144-2.144c-.26-.26-.26-.682 0-.943.131-.13.302-.195.472-.195z" fill="#8ce1eb"/><g fill="#26c6da"><path d="m15.667 18.011c-.276 0-.5-.224-.5-.5v-2.333c0-.276.224-.5.5-.5s.5.224.5.5v2.333c0 .276-.224.5-.5.5z"/><path d="m16.833 16.845h-2.333c-.276 0-.5-.224-.5-.5s.224-.5.5-.5h2.333c.276 0 .5.224.5.5s-.224.5-.5.5z"/><path d="m22 8.667h-12c-1.103 0-2 .897-2 2v10.667c0 1.103.897 2 2 2h12c1.103 0 2-.897 2-2v-10.667c0-1.103-.897-2-2-2zm0 13.333h-12c-.368 0-.667-.299-.667-.667v-9.333h13.333v9.333c.001.368-.298.667-.666.667z"/></g></svg>