<svg id="bold" enable-background="new 0 0 32 32" height="512" viewBox="0 0 32 32" width="512" xmlns="http://www.w3.org/2000/svg"><path d="m26 32h-20c-3.314 0-6-2.686-6-6v-20c0-3.314 2.686-6 6-6h20c3.314 0 6 2.686 6 6v20c0 3.314-2.686 6-6 6z" fill="#f5e6fe"/><path d="m18.667 8h-8.667c-1.103 0-2 .897-2 2v7.333c0 1.103.897 2 2 2h8.667c1.103 0 2-.897 2-2v-7.333c0-1.103-.897-2-2-2zm0 10h-8.667c-.368 0-.667-.299-.667-.667v-6h10v6c0 .368-.299.667-.666.667z" fill="#be63f9"/><path d="m22 12.667v3.333h.667v6c0 .368-.299.667-.667.667h-8.667c-.368 0-.667-.299-.667-.667v-1.333h-1.333v1.333c0 1.103.897 2 2 2h8.667c1.103 0 2-.897 2-2v-7.333c0-1.103-.897-2-2-2z" fill="#d9a4fc"/><path d="m16 15.333h-3.333c-.368 0-.667-.299-.667-.667s.298-.666.667-.666h3.333c.368 0 .667.299.667.667s-.299.666-.667.666z" fill="#be63f9"/></svg>